<svg xmlns="http://www.w3.org/2000/svg" xmlns:xlink="http://www.w3.org/1999/xlink" height="317.0" viewBox="0.0 0.0 287.0 317.0" width="287.0">
<g class="graph" id="graph0" transform="scale(1.0 1.0) rotate(0) translate(4 313)">
<title>G</title>
<polygon fill="white" points="-4,4 -4,-313 283,-313 283,4 -4,4" stroke="transparent" />
<g class="cluster" id="clust4">
<title>cluster_legend</title>
</g>

<g class="node" id="node1">
<title>node3</title>
<svg height="45px" preserveAspectRatio="xMinYMin meet" version="1.1" viewBox="0 0 204.454375 59.403214" width="153px" x="58" y="-96.5">
 <defs>
  <style type="text/css">
*{stroke-linecap:butt;stroke-linejoin:round;}
  </style>
 </defs>
 <g id="figure_1">
  <g id="patch_1">
   <path d="M 0 59.403214  L 204.454375 59.403214  L 204.454375 0  L 0 0  z " style="fill:#ffffff;" />
  </g>
  <g id="axes_1">
   <g id="patch_2">
    <path d="M 14.803125 28.925089  L 198.943125 28.925089  L 198.943125 1.745089  L 14.803125 1.745089  z " style="fill:#ffffff;" />
   </g>
   <g id="patch_3">
    <path clip-path="url(#p43a02b33b4)" d="M 16.783125 28.925089  L 24.703125 28.925089  L 24.703125 3.039375  L 16.783125 3.039375  z " style="fill:#fefebb;stroke:#444443;stroke-linejoin:miter;stroke-width:0.5;" />
   </g>
   <g id="patch_4">
    <path clip-path="url(#p43a02b33b4)" d="M 36.583125 28.925089  L 44.503125 28.925089  L 44.503125 28.925089  L 36.583125 28.925089  z " style="fill:#fefebb;stroke:#444443;stroke-linejoin:miter;stroke-width:0.5;" />
   </g>
   <g id="patch_5">
    <path clip-path="url(#p43a02b33b4)" d="M 56.383125 28.925089  L 64.303125 28.925089  L 64.303125 28.925089  L 56.383125 28.925089  z " style="fill:#fefebb;stroke:#444443;stroke-linejoin:miter;stroke-width:0.5;" />
   </g>
   <g id="patch_6">
    <path clip-path="url(#p43a02b33b4)" d="M 76.183125 28.925089  L 84.103125 28.925089  L 84.103125 28.925089  L 76.183125 28.925089  z " style="fill:#fefebb;stroke:#444443;stroke-linejoin:miter;stroke-width:0.5;" />
   </g>
   <g id="patch_7">
    <path clip-path="url(#p43a02b33b4)" d="M 95.983125 28.925089  L 103.903125 28.925089  L 103.903125 28.925089  L 95.983125 28.925089  z " style="fill:#fefebb;stroke:#444443;stroke-linejoin:miter;stroke-width:0.5;" />
   </g>
   <g id="patch_8">
    <path clip-path="url(#p43a02b33b4)" d="M 115.783125 28.925089  L 123.703125 28.925089  L 123.703125 28.925089  L 115.783125 28.925089  z " style="fill:#fefebb;stroke:#444443;stroke-linejoin:miter;stroke-width:0.5;" />
   </g>
   <g id="patch_9">
    <path clip-path="url(#p43a02b33b4)" d="M 135.583125 28.925089  L 143.503125 28.925089  L 143.503125 28.925089  L 135.583125 28.925089  z " style="fill:#fefebb;stroke:#444443;stroke-linejoin:miter;stroke-width:0.5;" />
   </g>
   <g id="patch_10">
    <path clip-path="url(#p43a02b33b4)" d="M 155.383125 28.925089  L 163.303125 28.925089  L 163.303125 28.925089  L 155.383125 28.925089  z " style="fill:#fefebb;stroke:#444443;stroke-linejoin:miter;stroke-width:0.5;" />
   </g>
   <g id="patch_11">
    <path clip-path="url(#p43a02b33b4)" d="M 175.183125 28.925089  L 183.103125 28.925089  L 183.103125 28.925089  L 175.183125 28.925089  z " style="fill:#fefebb;stroke:#444443;stroke-linejoin:miter;stroke-width:0.5;" />
   </g>
   <g id="patch_12">
    <path clip-path="url(#p43a02b33b4)" d="M 24.703125 28.925089  L 32.623125 28.925089  L 32.623125 28.925089  L 24.703125 28.925089  z " style="fill:#a1dab4;stroke:#444443;stroke-linejoin:miter;stroke-width:0.5;" />
   </g>
   <g id="patch_13">
    <path clip-path="url(#p43a02b33b4)" d="M 44.503125 28.925089  L 52.423125 28.925089  L 52.423125 28.925089  L 44.503125 28.925089  z " style="fill:#a1dab4;stroke:#444443;stroke-linejoin:miter;stroke-width:0.5;" />
   </g>
   <g id="patch_14">
    <path clip-path="url(#p43a02b33b4)" d="M 64.303125 28.925089  L 72.223125 28.925089  L 72.223125 28.925089  L 64.303125 28.925089  z " style="fill:#a1dab4;stroke:#444443;stroke-linejoin:miter;stroke-width:0.5;" />
   </g>
   <g id="patch_15">
    <path clip-path="url(#p43a02b33b4)" d="M 84.103125 28.925089  L 92.023125 28.925089  L 92.023125 28.925089  L 84.103125 28.925089  z " style="fill:#a1dab4;stroke:#444443;stroke-linejoin:miter;stroke-width:0.5;" />
   </g>
   <g id="patch_16">
    <path clip-path="url(#p43a02b33b4)" d="M 103.903125 28.925089  L 111.823125 28.925089  L 111.823125 28.925089  L 103.903125 28.925089  z " style="fill:#a1dab4;stroke:#444443;stroke-linejoin:miter;stroke-width:0.5;" />
   </g>
   <g id="patch_17">
    <path clip-path="url(#p43a02b33b4)" d="M 123.703125 28.925089  L 131.623125 28.925089  L 131.623125 28.925089  L 123.703125 28.925089  z " style="fill:#a1dab4;stroke:#444443;stroke-linejoin:miter;stroke-width:0.5;" />
   </g>
   <g id="patch_18">
    <path clip-path="url(#p43a02b33b4)" d="M 143.503125 28.925089  L 151.423125 28.925089  L 151.423125 28.925089  L 143.503125 28.925089  z " style="fill:#a1dab4;stroke:#444443;stroke-linejoin:miter;stroke-width:0.5;" />
   </g>
   <g id="patch_19">
    <path clip-path="url(#p43a02b33b4)" d="M 163.303125 28.925089  L 171.223125 28.925089  L 171.223125 28.925089  L 163.303125 28.925089  z " style="fill:#a1dab4;stroke:#444443;stroke-linejoin:miter;stroke-width:0.5;" />
   </g>
   <g id="patch_20">
    <path clip-path="url(#p43a02b33b4)" d="M 183.103125 28.925089  L 191.023125 28.925089  L 191.023125 15.982232  L 183.103125 15.982232  z " style="fill:#a1dab4;stroke:#444443;stroke-linejoin:miter;stroke-width:0.5;" />
   </g>
   <g id="patch_21">
    <path d="M 103.903124 29.740489  L 100.588604 37.079089  L 107.217644 37.079089  z " style="fill:#444443;" />
   </g>
   <g id="matplotlib.axis_1">
    <g id="xtick_1">
     <g id="line2d_1">
      <defs>
       <path d="M 0 0  L 0 3.5  " id="mf4f6c25db6" style="stroke:#000000;stroke-width:0.3;" />
      </defs>
      <g>
       <use style="stroke:#000000;stroke-width:0.3;" x="14.803125" y="28.925089" xlink:href="#mf4f6c25db6" />
      </g>
     </g>
     <g id="text_1">
      
      <defs>
       <path d="M 10.59375 35.5  L 73.1875 35.5  L 73.1875 27.203125  L 10.59375 27.203125  z " id="DejaVuSans-8722" />
       <path d="M 31.78125 66.40625  Q 24.171875 66.40625 20.328125 58.90625  Q 16.5 51.421875 16.5 36.375  Q 16.5 21.390625 20.328125 13.890625  Q 24.171875 6.390625 31.78125 6.390625  Q 39.453125 6.390625 43.28125 13.890625  Q 47.125 21.390625 47.125 36.375  Q 47.125 51.421875 43.28125 58.90625  Q 39.453125 66.40625 31.78125 66.40625  z M 31.78125 74.21875  Q 44.046875 74.21875 50.515625 64.515625  Q 56.984375 54.828125 56.984375 36.375  Q 56.984375 17.96875 50.515625 8.265625  Q 44.046875 -1.421875 31.78125 -1.421875  Q 19.53125 -1.421875 13.0625 8.265625  Q 6.59375 17.96875 6.59375 36.375  Q 6.59375 54.828125 13.0625 64.515625  Q 19.53125 74.21875 31.78125 74.21875  z " id="DejaVuSans-48" />
       <path d="M 10.6875 12.40625  L 21 12.40625  L 21 0  L 10.6875 0  z " id="DejaVuSans-46" />
       <path d="M 8.203125 72.90625  L 55.078125 72.90625  L 55.078125 68.703125  L 28.609375 0  L 18.3125 0  L 43.21875 64.59375  L 8.203125 64.59375  z " id="DejaVuSans-55" />
      </defs>
      <g style="fill:#444443;" transform="translate(0 42.003839)scale(0.08 -0.08)">
       <use xlink:href="#DejaVuSans-8722" />
       <use x="83.789062" xlink:href="#DejaVuSans-48" />
       <use x="147.412109" xlink:href="#DejaVuSans-46" />
       <use x="179.199219" xlink:href="#DejaVuSans-55" />
       <use x="242.822266" xlink:href="#DejaVuSans-48" />
       <use x="306.445312" xlink:href="#DejaVuSans-55" />
      </g>
     </g>
    </g>
    <g id="xtick_2">
     <g id="line2d_2">
      <g>
       <use style="stroke:#000000;stroke-width:0.3;" x="193.003125" y="28.925089" xlink:href="#mf4f6c25db6" />
      </g>
     </g>
     <g id="text_2">
      
      <defs>
       <path d="M 12.40625 8.296875  L 28.515625 8.296875  L 28.515625 63.921875  L 10.984375 60.40625  L 10.984375 69.390625  L 28.421875 72.90625  L 38.28125 72.90625  L 38.28125 8.296875  L 54.390625 8.296875  L 54.390625 0  L 12.40625 0  z " id="DejaVuSans-49" />
       <path d="M 37.796875 64.3125  L 12.890625 25.390625  L 37.796875 25.390625  z M 35.203125 72.90625  L 47.609375 72.90625  L 47.609375 25.390625  L 58.015625 25.390625  L 58.015625 17.1875  L 47.609375 17.1875  L 47.609375 0  L 37.796875 0  L 37.796875 17.1875  L 4.890625 17.1875  L 4.890625 26.703125  z " id="DejaVuSans-52" />
      </defs>
      <g style="fill:#444443;" transform="translate(181.551875 42.003839)scale(0.08 -0.08)">
       <use xlink:href="#DejaVuSans-49" />
       <use x="63.623047" xlink:href="#DejaVuSans-46" />
       <use x="95.410156" xlink:href="#DejaVuSans-52" />
       <use x="159.033203" xlink:href="#DejaVuSans-49" />
       <use x="222.65625" xlink:href="#DejaVuSans-52" />
      </g>
     </g>
    </g>
    <g id="text_3">
     
     <defs>
      <path d="M 19.671875 64.796875  L 19.671875 37.40625  L 32.078125 37.40625  Q 38.96875 37.40625 42.71875 40.96875  Q 46.484375 44.53125 46.484375 51.125  Q 46.484375 57.671875 42.71875 61.234375  Q 38.96875 64.796875 32.078125 64.796875  z M 9.8125 72.90625  L 32.078125 72.90625  Q 44.34375 72.90625 50.609375 67.359375  Q 56.890625 61.8125 56.890625 51.125  Q 56.890625 40.328125 50.609375 34.8125  Q 44.34375 29.296875 32.078125 29.296875  L 19.671875 29.296875  L 19.671875 0  L 9.8125 0  z " id="DejaVuSans-80" />
      <path d="M 34.28125 27.484375  Q 23.390625 27.484375 19.1875 25  Q 14.984375 22.515625 14.984375 16.5  Q 14.984375 11.71875 18.140625 8.90625  Q 21.296875 6.109375 26.703125 6.109375  Q 34.1875 6.109375 38.703125 11.40625  Q 43.21875 16.703125 43.21875 25.484375  L 43.21875 27.484375  z M 52.203125 31.203125  L 52.203125 0  L 43.21875 0  L 43.21875 8.296875  Q 40.140625 3.328125 35.546875 0.953125  Q 30.953125 -1.421875 24.3125 -1.421875  Q 15.921875 -1.421875 10.953125 3.296875  Q 6 8.015625 6 15.921875  Q 6 25.140625 12.171875 29.828125  Q 18.359375 34.515625 30.609375 34.515625  L 43.21875 34.515625  L 43.21875 35.40625  Q 43.21875 41.609375 39.140625 45  Q 35.0625 48.390625 27.6875 48.390625  Q 23 48.390625 18.546875 47.265625  Q 14.109375 46.140625 10.015625 43.890625  L 10.015625 52.203125  Q 14.9375 54.109375 19.578125 55.046875  Q 24.21875 56 28.609375 56  Q 40.484375 56 46.34375 49.84375  Q 52.203125 43.703125 52.203125 31.203125  z " id="DejaVuSans-97" />
      <path d="M 18.3125 70.21875  L 18.3125 54.6875  L 36.8125 54.6875  L 36.8125 47.703125  L 18.3125 47.703125  L 18.3125 18.015625  Q 18.3125 11.328125 20.140625 9.421875  Q 21.96875 7.515625 27.59375 7.515625  L 36.8125 7.515625  L 36.8125 0  L 27.59375 0  Q 17.1875 0 13.234375 3.875  Q 9.28125 7.765625 9.28125 18.015625  L 9.28125 47.703125  L 2.6875 47.703125  L 2.6875 54.6875  L 9.28125 54.6875  L 9.28125 70.21875  z " id="DejaVuSans-116" />
      <path d="M 41.109375 46.296875  Q 39.59375 47.171875 37.8125 47.578125  Q 36.03125 48 33.890625 48  Q 26.265625 48 22.1875 43.046875  Q 18.109375 38.09375 18.109375 28.8125  L 18.109375 0  L 9.078125 0  L 9.078125 54.6875  L 18.109375 54.6875  L 18.109375 46.1875  Q 20.953125 51.171875 25.484375 53.578125  Q 30.03125 56 36.53125 56  Q 37.453125 56 38.578125 55.875  Q 39.703125 55.765625 41.0625 55.515625  z " id="DejaVuSans-114" />
      <path d="M 30.609375 48.390625  Q 23.390625 48.390625 19.1875 42.75  Q 14.984375 37.109375 14.984375 27.296875  Q 14.984375 17.484375 19.15625 11.84375  Q 23.34375 6.203125 30.609375 6.203125  Q 37.796875 6.203125 41.984375 11.859375  Q 46.1875 17.53125 46.1875 27.296875  Q 46.1875 37.015625 41.984375 42.703125  Q 37.796875 48.390625 30.609375 48.390625  z M 30.609375 56  Q 42.328125 56 49.015625 48.375  Q 55.71875 40.765625 55.71875 27.296875  Q 55.71875 13.875 49.015625 6.21875  Q 42.328125 -1.421875 30.609375 -1.421875  Q 18.84375 -1.421875 12.171875 6.21875  Q 5.515625 13.875 5.515625 27.296875  Q 5.515625 40.765625 12.171875 48.375  Q 18.84375 56 30.609375 56  z " id="DejaVuSans-111" />
      <path d="M 54.890625 33.015625  L 54.890625 0  L 45.90625 0  L 45.90625 32.71875  Q 45.90625 40.484375 42.875 44.328125  Q 39.84375 48.1875 33.796875 48.1875  Q 26.515625 48.1875 22.3125 43.546875  Q 18.109375 38.921875 18.109375 30.90625  L 18.109375 0  L 9.078125 0  L 9.078125 54.6875  L 18.109375 54.6875  L 18.109375 46.1875  Q 21.34375 51.125 25.703125 53.5625  Q 30.078125 56 35.796875 56  Q 45.21875 56 50.046875 50.171875  Q 54.890625 44.34375 54.890625 33.015625  z " id="DejaVuSans-110" />
      <path d="M 44.28125 53.078125  L 44.28125 44.578125  Q 40.484375 46.53125 36.375 47.5  Q 32.28125 48.484375 27.875 48.484375  Q 21.1875 48.484375 17.84375 46.4375  Q 14.5 44.390625 14.5 40.28125  Q 14.5 37.15625 16.890625 35.375  Q 19.28125 33.59375 26.515625 31.984375  L 29.59375 31.296875  Q 39.15625 29.25 43.1875 25.515625  Q 47.21875 21.78125 47.21875 15.09375  Q 47.21875 7.46875 41.1875 3.015625  Q 35.15625 -1.421875 24.609375 -1.421875  Q 20.21875 -1.421875 15.453125 -0.5625  Q 10.6875 0.296875 5.421875 2  L 5.421875 11.28125  Q 10.40625 8.6875 15.234375 7.390625  Q 20.0625 6.109375 24.8125 6.109375  Q 31.15625 6.109375 34.5625 8.28125  Q 37.984375 10.453125 37.984375 14.40625  Q 37.984375 18.0625 35.515625 20.015625  Q 33.0625 21.96875 24.703125 23.78125  L 21.578125 24.515625  Q 13.234375 26.265625 9.515625 29.90625  Q 5.8125 33.546875 5.8125 39.890625  Q 5.8125 47.609375 11.28125 51.796875  Q 16.75 56 26.8125 56  Q 31.78125 56 36.171875 55.265625  Q 40.578125 54.546875 44.28125 53.078125  z " id="DejaVuSans-115" />
      <path d="M 50.984375 -16.609375  L 50.984375 -23.578125  L -0.984375 -23.578125  L -0.984375 -16.609375  z " id="DejaVuSans-95" />
      <path d="M 53.515625 70.515625  L 53.515625 60.890625  Q 47.90625 63.578125 42.921875 64.890625  Q 37.9375 66.21875 33.296875 66.21875  Q 25.25 66.21875 20.875 63.09375  Q 16.5 59.96875 16.5 54.203125  Q 16.5 49.359375 19.40625 46.890625  Q 22.3125 44.4375 30.421875 42.921875  L 36.375 41.703125  Q 47.40625 39.59375 52.65625 34.296875  Q 57.90625 29 57.90625 20.125  Q 57.90625 9.515625 50.796875 4.046875  Q 43.703125 -1.421875 29.984375 -1.421875  Q 24.8125 -1.421875 18.96875 -0.25  Q 13.140625 0.921875 6.890625 3.21875  L 6.890625 13.375  Q 12.890625 10.015625 18.65625 8.296875  Q 24.421875 6.59375 29.984375 6.59375  Q 38.421875 6.59375 43.015625 9.90625  Q 47.609375 13.234375 47.609375 19.390625  Q 47.609375 24.75 44.3125 27.78125  Q 41.015625 30.8125 33.5 32.328125  L 27.484375 33.5  Q 16.453125 35.6875 11.515625 40.375  Q 6.59375 45.0625 6.59375 53.421875  Q 6.59375 63.09375 13.40625 68.65625  Q 20.21875 74.21875 32.171875 74.21875  Q 37.3125 74.21875 42.625 73.28125  Q 47.953125 72.359375 53.515625 70.515625  z " id="DejaVuSans-83" />
      <path d="M 52 44.1875  Q 55.375 50.25 60.0625 53.125  Q 64.75 56 71.09375 56  Q 79.640625 56 84.28125 50.015625  Q 88.921875 44.046875 88.921875 33.015625  L 88.921875 0  L 79.890625 0  L 79.890625 32.71875  Q 79.890625 40.578125 77.09375 44.375  Q 74.3125 48.1875 68.609375 48.1875  Q 61.625 48.1875 57.5625 43.546875  Q 53.515625 38.921875 53.515625 30.90625  L 53.515625 0  L 44.484375 0  L 44.484375 32.71875  Q 44.484375 40.625 41.703125 44.40625  Q 38.921875 48.1875 33.109375 48.1875  Q 26.21875 48.1875 22.15625 43.53125  Q 18.109375 38.875 18.109375 30.90625  L 18.109375 0  L 9.078125 0  L 9.078125 54.6875  L 18.109375 54.6875  L 18.109375 46.1875  Q 21.1875 51.21875 25.484375 53.609375  Q 29.78125 56 35.6875 56  Q 41.65625 56 45.828125 52.96875  Q 50 49.953125 52 44.1875  z " id="DejaVuSans-109" />
      <path d="M 56.203125 29.59375  L 56.203125 25.203125  L 14.890625 25.203125  Q 15.484375 15.921875 20.484375 11.0625  Q 25.484375 6.203125 34.421875 6.203125  Q 39.59375 6.203125 44.453125 7.46875  Q 49.3125 8.734375 54.109375 11.28125  L 54.109375 2.78125  Q 49.265625 0.734375 44.1875 -0.34375  Q 39.109375 -1.421875 33.890625 -1.421875  Q 20.796875 -1.421875 13.15625 6.1875  Q 5.515625 13.8125 5.515625 26.8125  Q 5.515625 40.234375 12.765625 48.109375  Q 20.015625 56 32.328125 56  Q 43.359375 56 49.78125 48.890625  Q 56.203125 41.796875 56.203125 29.59375  z M 47.21875 32.234375  Q 47.125 39.59375 43.09375 43.984375  Q 39.0625 48.390625 32.421875 48.390625  Q 24.90625 48.390625 20.390625 44.140625  Q 15.875 39.890625 15.1875 32.171875  z " id="DejaVuSans-101" />
     </defs>
     <g style="fill:#444443;" transform="translate(64.54875 56.573839)scale(0.12 -0.12)">
      <use xlink:href="#DejaVuSans-80" />
      <use x="55.802734" xlink:href="#DejaVuSans-97" />
      <use x="117.082031" xlink:href="#DejaVuSans-116" />
      <use x="156.291016" xlink:href="#DejaVuSans-114" />
      <use x="195.154297" xlink:href="#DejaVuSans-111" />
      <use x="256.335938" xlink:href="#DejaVuSans-110" />
      <use x="319.714844" xlink:href="#DejaVuSans-115" />
      <use x="371.814453" xlink:href="#DejaVuSans-95" />
      <use x="421.814453" xlink:href="#DejaVuSans-83" />
      <use x="485.291016" xlink:href="#DejaVuSans-111" />
      <use x="546.472656" xlink:href="#DejaVuSans-109" />
      <use x="643.884766" xlink:href="#DejaVuSans-101" />
     </g>
    </g>
   </g>
   <g id="matplotlib.axis_2">
    <g id="ytick_1">
     <g id="line2d_3">
      <defs>
       <path d="M 0 0  L -3.5 0  " id="mf6fd257435" style="stroke:#000000;stroke-width:0.3;" />
      </defs>
      <g>
       <use style="stroke:#000000;stroke-width:0.3;" x="14.803125" y="28.925089" xlink:href="#mf6fd257435" />
      </g>
     </g>
     <g id="text_4">
      
      <g style="fill:#444443;" transform="translate(2.713125 31.964464)scale(0.08 -0.08)">
       <use xlink:href="#DejaVuSans-48" />
      </g>
     </g>
    </g>
    <g id="ytick_2">
     <g id="line2d_4">
      <g>
       <use style="stroke:#000000;stroke-width:0.3;" x="14.803125" y="3.039375" xlink:href="#mf6fd257435" />
      </g>
     </g>
     <g id="text_5">
      
      <defs>
       <path d="M 19.1875 8.296875  L 53.609375 8.296875  L 53.609375 0  L 7.328125 0  L 7.328125 8.296875  Q 12.9375 14.109375 22.625 23.890625  Q 32.328125 33.6875 34.8125 36.53125  Q 39.546875 41.84375 41.421875 45.53125  Q 43.3125 49.21875 43.3125 52.78125  Q 43.3125 58.59375 39.234375 62.25  Q 35.15625 65.921875 28.609375 65.921875  Q 23.96875 65.921875 18.8125 64.3125  Q 13.671875 62.703125 7.8125 59.421875  L 7.8125 69.390625  Q 13.765625 71.78125 18.9375 73  Q 24.125 74.21875 28.421875 74.21875  Q 39.75 74.21875 46.484375 68.546875  Q 53.21875 62.890625 53.21875 53.421875  Q 53.21875 48.921875 51.53125 44.890625  Q 49.859375 40.875 45.40625 35.40625  Q 44.1875 33.984375 37.640625 27.21875  Q 31.109375 20.453125 19.1875 8.296875  z " id="DejaVuSans-50" />
      </defs>
      <g style="fill:#444443;" transform="translate(2.713125 6.07875)scale(0.08 -0.08)">
       <use xlink:href="#DejaVuSans-50" />
      </g>
     </g>
    </g>
   </g>
   <g id="patch_22">
    <path d="M 14.803125 28.925089  L 14.803125 1.745089  " style="fill:none;stroke:#000000;stroke-linecap:square;stroke-linejoin:miter;stroke-width:0.3;" />
   </g>
   <g id="patch_23">
    <path d="M 14.803125 28.925089  L 198.943125 28.925089  " style="fill:none;stroke:#000000;stroke-linecap:square;stroke-linejoin:miter;stroke-width:0.3;" />
   </g>
   <g id="text_6">
    
    <defs>
     <path d="M 40.578125 39.3125  Q 47.65625 37.796875 51.625 33  Q 55.609375 28.21875 55.609375 21.1875  Q 55.609375 10.40625 48.1875 4.484375  Q 40.765625 -1.421875 27.09375 -1.421875  Q 22.515625 -1.421875 17.65625 -0.515625  Q 12.796875 0.390625 7.625 2.203125  L 7.625 11.71875  Q 11.71875 9.328125 16.59375 8.109375  Q 21.484375 6.890625 26.8125 6.890625  Q 36.078125 6.890625 40.9375 10.546875  Q 45.796875 14.203125 45.796875 21.1875  Q 45.796875 27.640625 41.28125 31.265625  Q 36.765625 34.90625 28.71875 34.90625  L 20.21875 34.90625  L 20.21875 43.015625  L 29.109375 43.015625  Q 36.375 43.015625 40.234375 45.921875  Q 44.09375 48.828125 44.09375 54.296875  Q 44.09375 59.90625 40.109375 62.90625  Q 36.140625 65.921875 28.71875 65.921875  Q 24.65625 65.921875 20.015625 65.03125  Q 15.375 64.15625 9.8125 62.3125  L 9.8125 71.09375  Q 15.4375 72.65625 20.34375 73.4375  Q 25.25 74.21875 29.59375 74.21875  Q 40.828125 74.21875 47.359375 69.109375  Q 53.90625 64.015625 53.90625 55.328125  Q 53.90625 49.265625 50.4375 45.09375  Q 46.96875 40.921875 40.578125 39.3125  z " id="DejaVuSans-51" />
     <path d="M 10.796875 72.90625  L 49.515625 72.90625  L 49.515625 64.59375  L 19.828125 64.59375  L 19.828125 46.734375  Q 21.96875 47.46875 24.109375 47.828125  Q 26.265625 48.1875 28.421875 48.1875  Q 40.625 48.1875 47.75 41.5  Q 54.890625 34.8125 54.890625 23.390625  Q 54.890625 11.625 47.5625 5.09375  Q 40.234375 -1.421875 26.90625 -1.421875  Q 22.3125 -1.421875 17.546875 -0.640625  Q 12.796875 0.140625 7.71875 1.703125  L 7.71875 11.625  Q 12.109375 9.234375 16.796875 8.0625  Q 21.484375 6.890625 26.703125 6.890625  Q 35.15625 6.890625 40.078125 11.328125  Q 45.015625 15.765625 45.015625 23.390625  Q 45.015625 31 40.078125 35.4375  Q 35.15625 39.890625 26.703125 39.890625  Q 22.75 39.890625 18.8125 39.015625  Q 14.890625 38.140625 10.796875 36.28125  z " id="DejaVuSans-53" />
    </defs>
    <g style="fill:#444443;" transform="translate(94.996874 45.233089)scale(0.08 -0.08)">
     <use xlink:href="#DejaVuSans-48" />
     <use x="63.623047" xlink:href="#DejaVuSans-46" />
     <use x="95.410156" xlink:href="#DejaVuSans-51" />
     <use x="159.033203" xlink:href="#DejaVuSans-53" />
    </g>
   </g>
  </g>
 </g>
 <defs>
  <clipPath id="p43a02b33b4">
   <rect height="27.18" width="184.14" x="14.803125" y="1.745089" />
  </clipPath>
 </defs>
</svg></g>

<g class="node" id="node4">
<title>leaf4</title>
<polygon fill="none" points="124,-31 102,-31 102,0 124,0 124,-31" stroke="#444443" stroke-width="0" />
<svg height="23px" preserveAspectRatio="xMinYMin meet" version="1.1" viewBox="0 0 18.971719 30.723384" width="14px" x="106" y="-26.5">
 <defs>
  <style type="text/css">
*{stroke-linecap:butt;stroke-linejoin:round;}
  </style>
 </defs>
 <g id="figure_1">
  <g id="patch_1">
   <path d="M 0 30.723384  L 18.971719 30.723384  L 18.971719 0  L 0 0  z " style="fill:#ffffff;" />
  </g>
  <g id="axes_1">
   <g id="patch_2">
    <path d="M 15.223859 5.738  C 15.223859 4.984493 15.075435 4.238312 14.78708 3.542162  C 14.498725 2.846013 14.076048 2.213431 13.543238 1.680621  C 13.010428 1.147811 12.377847 0.725134 11.681697 0.436779  C 10.985547 0.148424 10.239367 0 9.485859 0  C 8.732352 0 7.986172 0.148424 7.290022 0.436779  C 6.593872 0.725134 5.961291 1.147811 5.428481 1.680621  C 4.895671 2.213431 4.472993 2.846013 4.184639 3.542162  C 3.896284 4.238312 3.747859 4.984493 3.747859 5.738  C 3.747859 6.491507 3.896284 7.237688 4.184639 7.933838  C 4.472993 8.629987 4.895671 9.262569 5.428481 9.795379  C 5.961291 10.328189 6.593872 10.750866 7.290022 11.039221  C 7.986172 11.327576 8.732352 11.476 9.485859 11.476  C 10.239367 11.476 10.985547 11.327576 11.681697 11.039221  C 12.377847 10.750866 13.010428 10.328189 13.543238 9.795379  C 14.076048 9.262569 14.498725 8.629987 14.78708 7.933838  C 15.075435 7.237688 15.223859 6.491507 15.223859 5.738  M 9.485859 5.738  M 15.223859 5.738  z " style="fill:#fefebb;stroke:#444443;stroke-linejoin:miter;stroke-width:0.5;" />
   </g>
   <g id="text_1">
    
    <defs>
     <path d="M 54.890625 33.015625  L 54.890625 0  L 45.90625 0  L 45.90625 32.71875  Q 45.90625 40.484375 42.875 44.328125  Q 39.84375 48.1875 33.796875 48.1875  Q 26.515625 48.1875 22.3125 43.546875  Q 18.109375 38.921875 18.109375 30.90625  L 18.109375 0  L 9.078125 0  L 9.078125 54.6875  L 18.109375 54.6875  L 18.109375 46.1875  Q 21.34375 51.125 25.703125 53.5625  Q 30.078125 56 35.796875 56  Q 45.21875 56 50.046875 50.171875  Q 54.890625 44.34375 54.890625 33.015625  z " id="DejaVuSans-110" />
     <path d="M 10.59375 45.40625  L 73.1875 45.40625  L 73.1875 37.203125  L 10.59375 37.203125  z M 10.59375 25.484375  L 73.1875 25.484375  L 73.1875 17.1875  L 10.59375 17.1875  z " id="DejaVuSans-61" />
     <path d="M 19.1875 8.296875  L 53.609375 8.296875  L 53.609375 0  L 7.328125 0  L 7.328125 8.296875  Q 12.9375 14.109375 22.625 23.890625  Q 32.328125 33.6875 34.8125 36.53125  Q 39.546875 41.84375 41.421875 45.53125  Q 43.3125 49.21875 43.3125 52.78125  Q 43.3125 58.59375 39.234375 62.25  Q 35.15625 65.921875 28.609375 65.921875  Q 23.96875 65.921875 18.8125 64.3125  Q 13.671875 62.703125 7.8125 59.421875  L 7.8125 69.390625  Q 13.765625 71.78125 18.9375 73  Q 24.125 74.21875 28.421875 74.21875  Q 39.75 74.21875 46.484375 68.546875  Q 53.21875 62.890625 53.21875 53.421875  Q 53.21875 48.921875 51.53125 44.890625  Q 49.859375 40.875 45.40625 35.40625  Q 44.1875 33.984375 37.640625 27.21875  Q 31.109375 20.453125 19.1875 8.296875  z " id="DejaVuSans-50" />
    </defs>
    <g style="fill:#444443;" transform="translate(-0 18.773634)scale(0.09 -0.09)">
     <use xlink:href="#DejaVuSans-110" />
     <use x="63.378906" xlink:href="#DejaVuSans-61" />
     <use x="147.167969" xlink:href="#DejaVuSans-50" />
    </g>
    
    <defs>
     <path d="M 31.78125 66.40625  Q 24.171875 66.40625 20.328125 58.90625  Q 16.5 51.421875 16.5 36.375  Q 16.5 21.390625 20.328125 13.890625  Q 24.171875 6.390625 31.78125 6.390625  Q 39.453125 6.390625 43.28125 13.890625  Q 47.125 21.390625 47.125 36.375  Q 47.125 51.421875 43.28125 58.90625  Q 39.453125 66.40625 31.78125 66.40625  z M 31.78125 74.21875  Q 44.046875 74.21875 50.515625 64.515625  Q 56.984375 54.828125 56.984375 36.375  Q 56.984375 17.96875 50.515625 8.265625  Q 44.046875 -1.421875 31.78125 -1.421875  Q 19.53125 -1.421875 13.0625 8.265625  Q 6.59375 17.96875 6.59375 36.375  Q 6.59375 54.828125 13.0625 64.515625  Q 19.53125 74.21875 31.78125 74.21875  z " id="DejaVuSans-48" />
    </defs>
    <g style="fill:#444443;" transform="translate(6.622734 28.851665)scale(0.09 -0.09)">
     <use xlink:href="#DejaVuSans-48" />
    </g>
   </g>
  </g>
 </g>
</svg></g>

<g class="edge" id="edge1">
<title>node3-&gt;leaf4</title>
<path d="M124.48,-47.67C122.92,-43.43 121.33,-39.11 119.85,-35.09" fill="none" stroke="#444443" stroke-width="0.3" />
<polygon fill="#444443" points="121.1,-34.45 118.41,-31.18 118.48,-35.42 121.1,-34.45" stroke="#444443" stroke-width="0.3" />
</g>

<g class="node" id="node5">
<title>leaf5</title>
<polygon fill="none" points="160,-30.5 138,-30.5 138,-0.5 160,-0.5 160,-30.5" stroke="#444443" stroke-width="0" />
<svg height="22px" preserveAspectRatio="xMinYMin meet" version="1.1" viewBox="0 0 18.971719 29.467064" width="14px" x="142" y="-26.5">
 <defs>
  <style type="text/css">
*{stroke-linecap:butt;stroke-linejoin:round;}
  </style>
 </defs>
 <g id="figure_1">
  <g id="patch_1">
   <path d="M 0 29.467064  L 18.971719 29.467064  L 18.971719 0  L 0 0  z " style="fill:#ffffff;" />
  </g>
  <g id="axes_1">
   <g id="patch_2">
    <path d="M 14.619859 5.134  C 14.619859 4.459809 14.487059 3.792174 14.229057 3.169303  C 13.971055 2.546432 13.59287 1.980439 13.116146 1.503714  C 12.639421 1.026989 12.073427 0.648804 11.450556 0.390802  C 10.827685 0.132801 10.16005 -0 9.485859 -0  C 8.811669 -0 8.144034 0.132801 7.521163 0.390802  C 6.898292 0.648804 6.332298 1.026989 5.855573 1.503714  C 5.378848 1.980439 5.000663 2.546432 4.742662 3.169303  C 4.48466 3.792174 4.351859 4.459809 4.351859 5.134  C 4.351859 5.808191 4.48466 6.475826 4.742662 7.098697  C 5.000663 7.721568 5.378848 8.287561 5.855573 8.764286  C 6.332298 9.241011 6.898292 9.619196 7.521163 9.877198  C 8.144034 10.135199 8.811669 10.268 9.485859 10.268  C 10.16005 10.268 10.827685 10.135199 11.450556 9.877198  C 12.073427 9.619196 12.639421 9.241011 13.116146 8.764286  C 13.59287 8.287561 13.971055 7.721568 14.229057 7.098697  C 14.487059 6.475826 14.619859 5.808191 14.619859 5.134  M 9.485859 5.134  M 14.619859 5.134  z " style="fill:#a1dab4;stroke:#444443;stroke-linejoin:miter;stroke-width:0.5;" />
   </g>
   <g id="text_1">
    
    <defs>
     <path d="M 54.890625 33.015625  L 54.890625 0  L 45.90625 0  L 45.90625 32.71875  Q 45.90625 40.484375 42.875 44.328125  Q 39.84375 48.1875 33.796875 48.1875  Q 26.515625 48.1875 22.3125 43.546875  Q 18.109375 38.921875 18.109375 30.90625  L 18.109375 0  L 9.078125 0  L 9.078125 54.6875  L 18.109375 54.6875  L 18.109375 46.1875  Q 21.34375 51.125 25.703125 53.5625  Q 30.078125 56 35.796875 56  Q 45.21875 56 50.046875 50.171875  Q 54.890625 44.34375 54.890625 33.015625  z " id="DejaVuSans-110" />
     <path d="M 10.59375 45.40625  L 73.1875 45.40625  L 73.1875 37.203125  L 10.59375 37.203125  z M 10.59375 25.484375  L 73.1875 25.484375  L 73.1875 17.1875  L 10.59375 17.1875  z " id="DejaVuSans-61" />
     <path d="M 12.40625 8.296875  L 28.515625 8.296875  L 28.515625 63.921875  L 10.984375 60.40625  L 10.984375 69.390625  L 28.421875 72.90625  L 38.28125 72.90625  L 38.28125 8.296875  L 54.390625 8.296875  L 54.390625 0  L 12.40625 0  z " id="DejaVuSans-49" />
    </defs>
    <g style="fill:#444443;" transform="translate(0 17.517314)scale(0.09 -0.09)">
     <use xlink:href="#DejaVuSans-110" />
     <use x="63.378906" xlink:href="#DejaVuSans-61" />
     <use x="147.167969" xlink:href="#DejaVuSans-49" />
    </g>
    
    <g style="fill:#444443;" transform="translate(6.622734 27.595345)scale(0.09 -0.09)">
     <use xlink:href="#DejaVuSans-49" />
    </g>
   </g>
  </g>
 </g>
</svg></g>

<g class="edge" id="edge2">
<title>node3-&gt;leaf5</title>
<path d="M140.8,-47.67C141.96,-43.25 143.15,-38.75 144.24,-34.58" fill="none" stroke="#444443" stroke-width="0.3" />
<polygon fill="#444443" points="145.64,-34.78 145.3,-30.55 142.93,-34.07 145.64,-34.78" stroke="#444443" stroke-width="0.3" />
</g>

<g class="node" id="node2">
<title>node1</title>
<svg height="60px" preserveAspectRatio="xMinYMin meet" version="1.1" viewBox="0 0 205.417618 79.989911" width="154px" x="4" y="-182">
 <defs>
  <style type="text/css">
*{stroke-linecap:butt;stroke-linejoin:round;}
  </style>
 </defs>
 <g id="figure_1">
  <g id="patch_1">
   <path d="M 0 79.989911  L 205.417618 79.989911  L 205.417618 -0  L 0 -0  z " style="fill:#ffffff;" />
  </g>
  <g id="axes_1">
   <g id="patch_2">
    <path d="M 14.803125 49.633661  L 198.943125 49.633661  L 198.943125 0.709661  L 14.803125 0.709661  z " style="fill:#ffffff;" />
   </g>
   <g id="patch_3">
    <path clip-path="url(#p0847e0f98c)" d="M 16.793828 49.633661  L 24.756639 49.633661  L 24.756639 49.633661  L 16.793828 49.633661  z " style="fill:#fefebb;stroke:#444443;stroke-linejoin:miter;stroke-width:0.5;" />
   </g>
   <g id="patch_4">
    <path clip-path="url(#p0847e0f98c)" d="M 36.700855 49.633661  L 44.663666 49.633661  L 44.663666 49.633661  L 36.700855 49.633661  z " style="fill:#fefebb;stroke:#444443;stroke-linejoin:miter;stroke-width:0.5;" />
   </g>
   <g id="patch_5">
    <path clip-path="url(#p0847e0f98c)" d="M 56.607882 49.633661  L 64.570693 49.633661  L 64.570693 49.633661  L 56.607882 49.633661  z " style="fill:#fefebb;stroke:#444443;stroke-linejoin:miter;stroke-width:0.5;" />
   </g>
   <g id="patch_6">
    <path clip-path="url(#p0847e0f98c)" d="M 76.514909 49.633661  L 84.47772 49.633661  L 84.47772 49.633661  L 76.514909 49.633661  z " style="fill:#fefebb;stroke:#444443;stroke-linejoin:miter;stroke-width:0.5;" />
   </g>
   <g id="patch_7">
    <path clip-path="url(#p0847e0f98c)" d="M 96.421936 49.633661  L 104.384747 49.633661  L 104.384747 49.633661  L 96.421936 49.633661  z " style="fill:#fefebb;stroke:#444443;stroke-linejoin:miter;stroke-width:0.5;" />
   </g>
   <g id="patch_8">
    <path clip-path="url(#p0847e0f98c)" d="M 116.328963 49.633661  L 124.291774 49.633661  L 124.291774 49.633661  L 116.328963 49.633661  z " style="fill:#fefebb;stroke:#444443;stroke-linejoin:miter;stroke-width:0.5;" />
   </g>
   <g id="patch_9">
    <path clip-path="url(#p0847e0f98c)" d="M 136.23599 49.633661  L 144.198801 49.633661  L 144.198801 49.633661  L 136.23599 49.633661  z " style="fill:#fefebb;stroke:#444443;stroke-linejoin:miter;stroke-width:0.5;" />
   </g>
   <g id="patch_10">
    <path clip-path="url(#p0847e0f98c)" d="M 156.143017 49.633661  L 164.105828 49.633661  L 164.105828 49.633661  L 156.143017 49.633661  z " style="fill:#fefebb;stroke:#444443;stroke-linejoin:miter;stroke-width:0.5;" />
   </g>
   <g id="patch_11">
    <path clip-path="url(#p0847e0f98c)" d="M 176.050044 49.633661  L 184.012855 49.633661  L 184.012855 26.336518  L 176.050044 26.336518  z " style="fill:#fefebb;stroke:#444443;stroke-linejoin:miter;stroke-width:0.5;" />
   </g>
   <g id="patch_12">
    <path clip-path="url(#p0847e0f98c)" d="M 24.756639 49.633661  L 32.719449 49.633661  L 32.719449 3.039375  L 24.756639 3.039375  z " style="fill:#a1dab4;stroke:#444443;stroke-linejoin:miter;stroke-width:0.5;" />
   </g>
   <g id="patch_13">
    <path clip-path="url(#p0847e0f98c)" d="M 44.663666 49.633661  L 52.626476 49.633661  L 52.626476 49.633661  L 44.663666 49.633661  z " style="fill:#a1dab4;stroke:#444443;stroke-linejoin:miter;stroke-width:0.5;" />
   </g>
   <g id="patch_14">
    <path clip-path="url(#p0847e0f98c)" d="M 64.570693 49.633661  L 72.533503 49.633661  L 72.533503 49.633661  L 64.570693 49.633661  z " style="fill:#a1dab4;stroke:#444443;stroke-linejoin:miter;stroke-width:0.5;" />
   </g>
   <g id="patch_15">
    <path clip-path="url(#p0847e0f98c)" d="M 84.47772 49.633661  L 92.44053 49.633661  L 92.44053 49.633661  L 84.47772 49.633661  z " style="fill:#a1dab4;stroke:#444443;stroke-linejoin:miter;stroke-width:0.5;" />
   </g>
   <g id="patch_16">
    <path clip-path="url(#p0847e0f98c)" d="M 104.384747 49.633661  L 112.347557 49.633661  L 112.347557 49.633661  L 104.384747 49.633661  z " style="fill:#a1dab4;stroke:#444443;stroke-linejoin:miter;stroke-width:0.5;" />
   </g>
   <g id="patch_17">
    <path clip-path="url(#p0847e0f98c)" d="M 124.291774 49.633661  L 132.254584 49.633661  L 132.254584 49.633661  L 124.291774 49.633661  z " style="fill:#a1dab4;stroke:#444443;stroke-linejoin:miter;stroke-width:0.5;" />
   </g>
   <g id="patch_18">
    <path clip-path="url(#p0847e0f98c)" d="M 144.198801 49.633661  L 152.161611 49.633661  L 152.161611 49.633661  L 144.198801 49.633661  z " style="fill:#a1dab4;stroke:#444443;stroke-linejoin:miter;stroke-width:0.5;" />
   </g>
   <g id="patch_19">
    <path clip-path="url(#p0847e0f98c)" d="M 164.105828 49.633661  L 172.068639 49.633661  L 172.068639 49.633661  L 164.105828 49.633661  z " style="fill:#a1dab4;stroke:#444443;stroke-linejoin:miter;stroke-width:0.5;" />
   </g>
   <g id="patch_20">
    <path clip-path="url(#p0847e0f98c)" d="M 184.012855 49.633661  L 191.975666 49.633661  L 191.975666 37.985089  L 184.012855 37.985089  z " style="fill:#a1dab4;stroke:#444443;stroke-linejoin:miter;stroke-width:0.5;" />
   </g>
   <g id="patch_21">
    <path d="M 104.384748 50.449061  L 101.070228 57.787661  L 107.699268 57.787661  z " style="fill:#444443;" />
   </g>
   <g id="matplotlib.axis_1">
    <g id="xtick_1">
     <g id="line2d_1">
      <defs>
       <path d="M 0 0  L 0 3.5  " id="m16b1ffceed" style="stroke:#000000;stroke-width:0.3;" />
      </defs>
      <g>
       <use style="stroke:#000000;stroke-width:0.3;" x="14.803125" y="49.633661" xlink:href="#m16b1ffceed" />
      </g>
     </g>
     <g id="text_1">
      
      <defs>
       <path d="M 10.59375 35.5  L 73.1875 35.5  L 73.1875 27.203125  L 10.59375 27.203125  z " id="DejaVuSans-8722" />
       <path d="M 31.78125 66.40625  Q 24.171875 66.40625 20.328125 58.90625  Q 16.5 51.421875 16.5 36.375  Q 16.5 21.390625 20.328125 13.890625  Q 24.171875 6.390625 31.78125 6.390625  Q 39.453125 6.390625 43.28125 13.890625  Q 47.125 21.390625 47.125 36.375  Q 47.125 51.421875 43.28125 58.90625  Q 39.453125 66.40625 31.78125 66.40625  z M 31.78125 74.21875  Q 44.046875 74.21875 50.515625 64.515625  Q 56.984375 54.828125 56.984375 36.375  Q 56.984375 17.96875 50.515625 8.265625  Q 44.046875 -1.421875 31.78125 -1.421875  Q 19.53125 -1.421875 13.0625 8.265625  Q 6.59375 17.96875 6.59375 36.375  Q 6.59375 54.828125 13.0625 64.515625  Q 19.53125 74.21875 31.78125 74.21875  z " id="DejaVuSans-48" />
       <path d="M 10.6875 12.40625  L 21 12.40625  L 21 0  L 10.6875 0  z " id="DejaVuSans-46" />
       <path d="M 31.78125 34.625  Q 24.75 34.625 20.71875 30.859375  Q 16.703125 27.09375 16.703125 20.515625  Q 16.703125 13.921875 20.71875 10.15625  Q 24.75 6.390625 31.78125 6.390625  Q 38.8125 6.390625 42.859375 10.171875  Q 46.921875 13.96875 46.921875 20.515625  Q 46.921875 27.09375 42.890625 30.859375  Q 38.875 34.625 31.78125 34.625  z M 21.921875 38.8125  Q 15.578125 40.375 12.03125 44.71875  Q 8.5 49.078125 8.5 55.328125  Q 8.5 64.0625 14.71875 69.140625  Q 20.953125 74.21875 31.78125 74.21875  Q 42.671875 74.21875 48.875 69.140625  Q 55.078125 64.0625 55.078125 55.328125  Q 55.078125 49.078125 51.53125 44.71875  Q 48 40.375 41.703125 38.8125  Q 48.828125 37.15625 52.796875 32.3125  Q 56.78125 27.484375 56.78125 20.515625  Q 56.78125 9.90625 50.3125 4.234375  Q 43.84375 -1.421875 31.78125 -1.421875  Q 19.734375 -1.421875 13.25 4.234375  Q 6.78125 9.90625 6.78125 20.515625  Q 6.78125 27.484375 10.78125 32.3125  Q 14.796875 37.15625 21.921875 38.8125  z M 18.3125 54.390625  Q 18.3125 48.734375 21.84375 45.5625  Q 25.390625 42.390625 31.78125 42.390625  Q 38.140625 42.390625 41.71875 45.5625  Q 45.3125 48.734375 45.3125 54.390625  Q 45.3125 60.0625 41.71875 63.234375  Q 38.140625 66.40625 31.78125 66.40625  Q 25.390625 66.40625 21.84375 63.234375  Q 18.3125 60.0625 18.3125 54.390625  z " id="DejaVuSans-56" />
       <path d="M 10.984375 1.515625  L 10.984375 10.5  Q 14.703125 8.734375 18.5 7.8125  Q 22.3125 6.890625 25.984375 6.890625  Q 35.75 6.890625 40.890625 13.453125  Q 46.046875 20.015625 46.78125 33.40625  Q 43.953125 29.203125 39.59375 26.953125  Q 35.25 24.703125 29.984375 24.703125  Q 19.046875 24.703125 12.671875 31.3125  Q 6.296875 37.9375 6.296875 49.421875  Q 6.296875 60.640625 12.9375 67.421875  Q 19.578125 74.21875 30.609375 74.21875  Q 43.265625 74.21875 49.921875 64.515625  Q 56.59375 54.828125 56.59375 36.375  Q 56.59375 19.140625 48.40625 8.859375  Q 40.234375 -1.421875 26.421875 -1.421875  Q 22.703125 -1.421875 18.890625 -0.6875  Q 15.09375 0.046875 10.984375 1.515625  z M 30.609375 32.421875  Q 37.25 32.421875 41.125 36.953125  Q 45.015625 41.5 45.015625 49.421875  Q 45.015625 57.28125 41.125 61.84375  Q 37.25 66.40625 30.609375 66.40625  Q 23.96875 66.40625 20.09375 61.84375  Q 16.21875 57.28125 16.21875 49.421875  Q 16.21875 41.5 20.09375 36.953125  Q 23.96875 32.421875 30.609375 32.421875  z " id="DejaVuSans-57" />
       <path d="M 37.796875 64.3125  L 12.890625 25.390625  L 37.796875 25.390625  z M 35.203125 72.90625  L 47.609375 72.90625  L 47.609375 25.390625  L 58.015625 25.390625  L 58.015625 17.1875  L 47.609375 17.1875  L 47.609375 0  L 37.796875 0  L 37.796875 17.1875  L 4.890625 17.1875  L 4.890625 26.703125  z " id="DejaVuSans-52" />
      </defs>
      <g style="fill:#444443;" transform="translate(-0 62.712411)scale(0.08 -0.08)">
       <use xlink:href="#DejaVuSans-8722" />
       <use x="83.789062" xlink:href="#DejaVuSans-48" />
       <use x="147.412109" xlink:href="#DejaVuSans-46" />
       <use x="179.199219" xlink:href="#DejaVuSans-56" />
       <use x="242.822266" xlink:href="#DejaVuSans-57" />
       <use x="306.445312" xlink:href="#DejaVuSans-52" />
      </g>
     </g>
    </g>
    <g id="xtick_2">
     <g id="line2d_2">
      <g>
       <use style="stroke:#000000;stroke-width:0.3;" x="193.966368" y="49.633661" xlink:href="#m16b1ffceed" />
      </g>
     </g>
     <g id="text_2">
      
      <defs>
       <path d="M 12.40625 8.296875  L 28.515625 8.296875  L 28.515625 63.921875  L 10.984375 60.40625  L 10.984375 69.390625  L 28.421875 72.90625  L 38.28125 72.90625  L 38.28125 8.296875  L 54.390625 8.296875  L 54.390625 0  L 12.40625 0  z " id="DejaVuSans-49" />
      </defs>
      <g style="fill:#444443;" transform="translate(182.515118 62.712411)scale(0.08 -0.08)">
       <use xlink:href="#DejaVuSans-49" />
       <use x="63.623047" xlink:href="#DejaVuSans-46" />
       <use x="95.410156" xlink:href="#DejaVuSans-49" />
       <use x="159.033203" xlink:href="#DejaVuSans-49" />
       <use x="222.65625" xlink:href="#DejaVuSans-56" />
      </g>
     </g>
    </g>
    <g id="text_3">
     
     <defs>
      <path d="M 9.8125 72.90625  L 19.671875 72.90625  L 19.671875 43.015625  L 55.515625 43.015625  L 55.515625 72.90625  L 65.375 72.90625  L 65.375 0  L 55.515625 0  L 55.515625 34.71875  L 19.671875 34.71875  L 19.671875 0  L 9.8125 0  z " id="DejaVuSans-72" />
      <path d="M 8.5 21.578125  L 8.5 54.6875  L 17.484375 54.6875  L 17.484375 21.921875  Q 17.484375 14.15625 20.5 10.265625  Q 23.53125 6.390625 29.59375 6.390625  Q 36.859375 6.390625 41.078125 11.03125  Q 45.3125 15.671875 45.3125 23.6875  L 45.3125 54.6875  L 54.296875 54.6875  L 54.296875 0  L 45.3125 0  L 45.3125 8.40625  Q 42.046875 3.421875 37.71875 1  Q 33.40625 -1.421875 27.6875 -1.421875  Q 18.265625 -1.421875 13.375 4.4375  Q 8.5 10.296875 8.5 21.578125  z M 31.109375 56  z " id="DejaVuSans-117" />
      <path d="M 54.890625 33.015625  L 54.890625 0  L 45.90625 0  L 45.90625 32.71875  Q 45.90625 40.484375 42.875 44.328125  Q 39.84375 48.1875 33.796875 48.1875  Q 26.515625 48.1875 22.3125 43.546875  Q 18.109375 38.921875 18.109375 30.90625  L 18.109375 0  L 9.078125 0  L 9.078125 54.6875  L 18.109375 54.6875  L 18.109375 46.1875  Q 21.34375 51.125 25.703125 53.5625  Q 30.078125 56 35.796875 56  Q 45.21875 56 50.046875 50.171875  Q 54.890625 44.34375 54.890625 33.015625  z " id="DejaVuSans-110" />
      <path d="M 45.40625 27.984375  Q 45.40625 37.75 41.375 43.109375  Q 37.359375 48.484375 30.078125 48.484375  Q 22.859375 48.484375 18.828125 43.109375  Q 14.796875 37.75 14.796875 27.984375  Q 14.796875 18.265625 18.828125 12.890625  Q 22.859375 7.515625 30.078125 7.515625  Q 37.359375 7.515625 41.375 12.890625  Q 45.40625 18.265625 45.40625 27.984375  z M 54.390625 6.78125  Q 54.390625 -7.171875 48.1875 -13.984375  Q 42 -20.796875 29.203125 -20.796875  Q 24.46875 -20.796875 20.265625 -20.09375  Q 16.0625 -19.390625 12.109375 -17.921875  L 12.109375 -9.1875  Q 16.0625 -11.328125 19.921875 -12.34375  Q 23.78125 -13.375 27.78125 -13.375  Q 36.625 -13.375 41.015625 -8.765625  Q 45.40625 -4.15625 45.40625 5.171875  L 45.40625 9.625  Q 42.625 4.78125 38.28125 2.390625  Q 33.9375 0 27.875 0  Q 17.828125 0 11.671875 7.65625  Q 5.515625 15.328125 5.515625 27.984375  Q 5.515625 40.671875 11.671875 48.328125  Q 17.828125 56 27.875 56  Q 33.9375 56 38.28125 53.609375  Q 42.625 51.21875 45.40625 46.390625  L 45.40625 54.6875  L 54.390625 54.6875  z " id="DejaVuSans-103" />
      <path d="M 41.109375 46.296875  Q 39.59375 47.171875 37.8125 47.578125  Q 36.03125 48 33.890625 48  Q 26.265625 48 22.1875 43.046875  Q 18.109375 38.09375 18.109375 28.8125  L 18.109375 0  L 9.078125 0  L 9.078125 54.6875  L 18.109375 54.6875  L 18.109375 46.1875  Q 20.953125 51.171875 25.484375 53.578125  Q 30.03125 56 36.53125 56  Q 37.453125 56 38.578125 55.875  Q 39.703125 55.765625 41.0625 55.515625  z " id="DejaVuSans-114" />
      <path d="M 32.171875 -5.078125  Q 28.375 -14.84375 24.75 -17.8125  Q 21.140625 -20.796875 15.09375 -20.796875  L 7.90625 -20.796875  L 7.90625 -13.28125  L 13.1875 -13.28125  Q 16.890625 -13.28125 18.9375 -11.515625  Q 21 -9.765625 23.484375 -3.21875  L 25.09375 0.875  L 2.984375 54.6875  L 12.5 54.6875  L 29.59375 11.921875  L 46.6875 54.6875  L 56.203125 54.6875  z " id="DejaVuSans-121" />
      <path d="M 50.984375 -16.609375  L 50.984375 -23.578125  L -0.984375 -23.578125  L -0.984375 -16.609375  z " id="DejaVuSans-95" />
      <path d="M 9.8125 72.90625  L 23.09375 72.90625  L 55.421875 11.921875  L 55.421875 72.90625  L 64.984375 72.90625  L 64.984375 0  L 51.703125 0  L 19.390625 60.984375  L 19.390625 0  L 9.8125 0  z " id="DejaVuSans-78" />
      <path d="M 30.609375 48.390625  Q 23.390625 48.390625 19.1875 42.75  Q 14.984375 37.109375 14.984375 27.296875  Q 14.984375 17.484375 19.15625 11.84375  Q 23.34375 6.203125 30.609375 6.203125  Q 37.796875 6.203125 41.984375 11.859375  Q 46.1875 17.53125 46.1875 27.296875  Q 46.1875 37.015625 41.984375 42.703125  Q 37.796875 48.390625 30.609375 48.390625  z M 30.609375 56  Q 42.328125 56 49.015625 48.375  Q 55.71875 40.765625 55.71875 27.296875  Q 55.71875 13.875 49.015625 6.21875  Q 42.328125 -1.421875 30.609375 -1.421875  Q 18.84375 -1.421875 12.171875 6.21875  Q 5.515625 13.875 5.515625 27.296875  Q 5.515625 40.765625 12.171875 48.375  Q 18.84375 56 30.609375 56  z " id="DejaVuSans-111" />
     </defs>
     <g style="fill:#444443;" transform="translate(73.769063 77.160536)scale(0.12 -0.12)">
      <use xlink:href="#DejaVuSans-72" />
      <use x="75.195312" xlink:href="#DejaVuSans-117" />
      <use x="138.574219" xlink:href="#DejaVuSans-110" />
      <use x="201.953125" xlink:href="#DejaVuSans-103" />
      <use x="265.429688" xlink:href="#DejaVuSans-114" />
      <use x="306.542969" xlink:href="#DejaVuSans-121" />
      <use x="365.722656" xlink:href="#DejaVuSans-95" />
      <use x="415.722656" xlink:href="#DejaVuSans-78" />
      <use x="490.527344" xlink:href="#DejaVuSans-111" />
     </g>
    </g>
   </g>
   <g id="matplotlib.axis_2">
    <g id="ytick_1">
     <g id="line2d_3">
      <defs>
       <path d="M 0 0  L -3.5 0  " id="m9e9e343ae8" style="stroke:#000000;stroke-width:0.3;" />
      </defs>
      <g>
       <use style="stroke:#000000;stroke-width:0.3;" x="14.803125" y="49.633661" xlink:href="#m9e9e343ae8" />
      </g>
     </g>
     <g id="text_4">
      
      <g style="fill:#444443;" transform="translate(2.713125 52.673036)scale(0.08 -0.08)">
       <use xlink:href="#DejaVuSans-48" />
      </g>
     </g>
    </g>
    <g id="ytick_2">
     <g id="line2d_4">
      <g>
       <use style="stroke:#000000;stroke-width:0.3;" x="14.803125" y="3.039375" xlink:href="#m9e9e343ae8" />
      </g>
     </g>
     <g id="text_5">
      
      <g style="fill:#444443;" transform="translate(2.713125 6.07875)scale(0.08 -0.08)">
       <use xlink:href="#DejaVuSans-52" />
      </g>
     </g>
    </g>
   </g>
   <g id="patch_22">
    <path d="M 14.803125 49.633661  L 14.803125 0.709661  " style="fill:none;stroke:#000000;stroke-linecap:square;stroke-linejoin:miter;stroke-width:0.3;" />
   </g>
   <g id="patch_23">
    <path d="M 14.803125 49.633661  L 198.943125 49.633661  " style="fill:none;stroke:#000000;stroke-linecap:square;stroke-linejoin:miter;stroke-width:0.3;" />
   </g>
   <g id="text_6">
    
    <g style="fill:#444443;" transform="translate(95.478498 65.941661)scale(0.08 -0.08)">
     <use xlink:href="#DejaVuSans-48" />
     <use x="63.623047" xlink:href="#DejaVuSans-46" />
     <use x="95.410156" xlink:href="#DejaVuSans-49" />
     <use x="159.033203" xlink:href="#DejaVuSans-49" />
    </g>
   </g>
  </g>
 </g>
 <defs>
  <clipPath id="p0847e0f98c">
   <rect height="48.924" width="184.14" x="14.803125" y="0.709661" />
  </clipPath>
 </defs>
</svg></g>

<g class="edge" id="edge5">
<title>node1-&gt;node3</title>
<path d="M104.4,-117.66C107.43,-113.34 110.52,-108.95 113.5,-104.7" fill="none" stroke="#444443" stroke-width="0.3" />
<polygon fill="#444443" points="114.83,-105.25 115.98,-101.17 112.53,-103.64 114.83,-105.25" stroke="#444443" stroke-width="0.3" />
</g>

<g class="node" id="node6">
<title>leaf2</title>
<polygon fill="none" points="40,-91 18,-91 18,-58 40,-58 40,-91" stroke="#444443" stroke-width="0" />
<svg height="25px" preserveAspectRatio="xMinYMin meet" version="1.1" viewBox="0 0 18.971719 33.236024" width="14px" x="22" y="-86.5">
 <defs>
  <style type="text/css">
*{stroke-linecap:butt;stroke-linejoin:round;}
  </style>
 </defs>
 <g id="figure_1">
  <g id="patch_1">
   <path d="M 0 33.236024  L 18.971719 33.236024  L 18.971719 -0  L 0 -0  z " style="fill:#ffffff;" />
  </g>
  <g id="axes_1">
   <g id="patch_2">
    <path d="M 16.431859 6.946  C 16.431859 6.03386 16.252188 5.130589 15.903127 4.287881  C 15.554066 3.445173 15.042404 2.679417 14.397423 2.034436  C 13.752442 1.389456 12.986686 0.877794 12.143978 0.528733  C 11.301271 0.179672 10.398 -0 9.485859 -0  C 8.573719 -0 7.670448 0.179672 6.82774 0.528733  C 5.985032 0.877794 5.219276 1.389456 4.574296 2.034436  C 3.929315 2.679417 3.417653 3.445173 3.068592 4.287881  C 2.719531 5.130589 2.539859 6.03386 2.539859 6.946  C 2.539859 7.85814 2.719531 8.761411 3.068592 9.604119  C 3.417653 10.446827 3.929315 11.212583 4.574296 11.857564  C 5.219276 12.502544 5.985032 13.014206 6.82774 13.363267  C 7.670448 13.712328 8.573719 13.892 9.485859 13.892  C 10.398 13.892 11.301271 13.712328 12.143978 13.363267  C 12.986686 13.014206 13.752442 12.502544 14.397423 11.857564  C 15.042404 11.212583 15.554066 10.446827 15.903127 9.604119  C 16.252188 8.761411 16.431859 7.85814 16.431859 6.946  M 9.485859 6.946  M 16.431859 6.946  z " style="fill:#a1dab4;stroke:#444443;stroke-linejoin:miter;stroke-width:0.5;" />
   </g>
   <g id="text_1">
    
    <defs>
     <path d="M 54.890625 33.015625  L 54.890625 0  L 45.90625 0  L 45.90625 32.71875  Q 45.90625 40.484375 42.875 44.328125  Q 39.84375 48.1875 33.796875 48.1875  Q 26.515625 48.1875 22.3125 43.546875  Q 18.109375 38.921875 18.109375 30.90625  L 18.109375 0  L 9.078125 0  L 9.078125 54.6875  L 18.109375 54.6875  L 18.109375 46.1875  Q 21.34375 51.125 25.703125 53.5625  Q 30.078125 56 35.796875 56  Q 45.21875 56 50.046875 50.171875  Q 54.890625 44.34375 54.890625 33.015625  z " id="DejaVuSans-110" />
     <path d="M 10.59375 45.40625  L 73.1875 45.40625  L 73.1875 37.203125  L 10.59375 37.203125  z M 10.59375 25.484375  L 73.1875 25.484375  L 73.1875 17.1875  L 10.59375 17.1875  z " id="DejaVuSans-61" />
     <path d="M 37.796875 64.3125  L 12.890625 25.390625  L 37.796875 25.390625  z M 35.203125 72.90625  L 47.609375 72.90625  L 47.609375 25.390625  L 58.015625 25.390625  L 58.015625 17.1875  L 47.609375 17.1875  L 47.609375 0  L 37.796875 0  L 37.796875 17.1875  L 4.890625 17.1875  L 4.890625 26.703125  z " id="DejaVuSans-52" />
    </defs>
    <g style="fill:#444443;" transform="translate(0 21.286274)scale(0.09 -0.09)">
     <use xlink:href="#DejaVuSans-110" />
     <use x="63.378906" xlink:href="#DejaVuSans-61" />
     <use x="147.167969" xlink:href="#DejaVuSans-52" />
    </g>
    
    <defs>
     <path d="M 12.40625 8.296875  L 28.515625 8.296875  L 28.515625 63.921875  L 10.984375 60.40625  L 10.984375 69.390625  L 28.421875 72.90625  L 38.28125 72.90625  L 38.28125 8.296875  L 54.390625 8.296875  L 54.390625 0  L 12.40625 0  z " id="DejaVuSans-49" />
    </defs>
    <g style="fill:#444443;" transform="translate(6.622734 31.364305)scale(0.09 -0.09)">
     <use xlink:href="#DejaVuSans-49" />
    </g>
   </g>
  </g>
 </g>
</svg></g>

<g class="edge" id="edge4">
<title>node1-&gt;leaf2</title>
<path d="M58.04,-117.66C52.62,-109.79 47.01,-101.65 42.19,-94.65" fill="none" stroke="#444443" stroke-width="0.3" />
<polygon fill="#444443" points="43.31,-93.82 39.89,-91.32 41.01,-95.4 43.31,-93.82" stroke="#444443" stroke-width="0.3" />
</g>

<g class="node" id="node7">
<title>leaf6</title>
<polygon fill="none" points="198,-167.5 176,-167.5 176,-136.5 198,-136.5 198,-167.5" stroke="#444443" stroke-width="0" />
<svg height="23px" preserveAspectRatio="xMinYMin meet" version="1.1" viewBox="0 0 18.971719 30.723384" width="14px" x="180" y="-163">
 <defs>
  <style type="text/css">
*{stroke-linecap:butt;stroke-linejoin:round;}
  </style>
 </defs>
 <g id="figure_1">
  <g id="patch_1">
   <path d="M 0 30.723384  L 18.971719 30.723384  L 18.971719 0  L 0 0  z " style="fill:#ffffff;" />
  </g>
  <g id="axes_1">
   <g id="patch_2">
    <path d="M 15.223859 5.738  C 15.223859 4.984493 15.075435 4.238312 14.78708 3.542162  C 14.498725 2.846013 14.076048 2.213431 13.543238 1.680621  C 13.010428 1.147811 12.377847 0.725134 11.681697 0.436779  C 10.985547 0.148424 10.239367 0 9.485859 0  C 8.732352 0 7.986172 0.148424 7.290022 0.436779  C 6.593872 0.725134 5.961291 1.147811 5.428481 1.680621  C 4.895671 2.213431 4.472993 2.846013 4.184639 3.542162  C 3.896284 4.238312 3.747859 4.984493 3.747859 5.738  C 3.747859 6.491507 3.896284 7.237688 4.184639 7.933838  C 4.472993 8.629987 4.895671 9.262569 5.428481 9.795379  C 5.961291 10.328189 6.593872 10.750866 7.290022 11.039221  C 7.986172 11.327576 8.732352 11.476 9.485859 11.476  C 10.239367 11.476 10.985547 11.327576 11.681697 11.039221  C 12.377847 10.750866 13.010428 10.328189 13.543238 9.795379  C 14.076048 9.262569 14.498725 8.629987 14.78708 7.933838  C 15.075435 7.237688 15.223859 6.491507 15.223859 5.738  M 9.485859 5.738  M 15.223859 5.738  z " style="fill:#fefebb;stroke:#444443;stroke-linejoin:miter;stroke-width:0.5;" />
   </g>
   <g id="text_1">
    
    <defs>
     <path d="M 54.890625 33.015625  L 54.890625 0  L 45.90625 0  L 45.90625 32.71875  Q 45.90625 40.484375 42.875 44.328125  Q 39.84375 48.1875 33.796875 48.1875  Q 26.515625 48.1875 22.3125 43.546875  Q 18.109375 38.921875 18.109375 30.90625  L 18.109375 0  L 9.078125 0  L 9.078125 54.6875  L 18.109375 54.6875  L 18.109375 46.1875  Q 21.34375 51.125 25.703125 53.5625  Q 30.078125 56 35.796875 56  Q 45.21875 56 50.046875 50.171875  Q 54.890625 44.34375 54.890625 33.015625  z " id="DejaVuSans-110" />
     <path d="M 10.59375 45.40625  L 73.1875 45.40625  L 73.1875 37.203125  L 10.59375 37.203125  z M 10.59375 25.484375  L 73.1875 25.484375  L 73.1875 17.1875  L 10.59375 17.1875  z " id="DejaVuSans-61" />
     <path d="M 19.1875 8.296875  L 53.609375 8.296875  L 53.609375 0  L 7.328125 0  L 7.328125 8.296875  Q 12.9375 14.109375 22.625 23.890625  Q 32.328125 33.6875 34.8125 36.53125  Q 39.546875 41.84375 41.421875 45.53125  Q 43.3125 49.21875 43.3125 52.78125  Q 43.3125 58.59375 39.234375 62.25  Q 35.15625 65.921875 28.609375 65.921875  Q 23.96875 65.921875 18.8125 64.3125  Q 13.671875 62.703125 7.8125 59.421875  L 7.8125 69.390625  Q 13.765625 71.78125 18.9375 73  Q 24.125 74.21875 28.421875 74.21875  Q 39.75 74.21875 46.484375 68.546875  Q 53.21875 62.890625 53.21875 53.421875  Q 53.21875 48.921875 51.53125 44.890625  Q 49.859375 40.875 45.40625 35.40625  Q 44.1875 33.984375 37.640625 27.21875  Q 31.109375 20.453125 19.1875 8.296875  z " id="DejaVuSans-50" />
    </defs>
    <g style="fill:#444443;" transform="translate(-0 18.773634)scale(0.09 -0.09)">
     <use xlink:href="#DejaVuSans-110" />
     <use x="63.378906" xlink:href="#DejaVuSans-61" />
     <use x="147.167969" xlink:href="#DejaVuSans-50" />
    </g>
    
    <defs>
     <path d="M 31.78125 66.40625  Q 24.171875 66.40625 20.328125 58.90625  Q 16.5 51.421875 16.5 36.375  Q 16.5 21.390625 20.328125 13.890625  Q 24.171875 6.390625 31.78125 6.390625  Q 39.453125 6.390625 43.28125 13.890625  Q 47.125 21.390625 47.125 36.375  Q 47.125 51.421875 43.28125 58.90625  Q 39.453125 66.40625 31.78125 66.40625  z M 31.78125 74.21875  Q 44.046875 74.21875 50.515625 64.515625  Q 56.984375 54.828125 56.984375 36.375  Q 56.984375 17.96875 50.515625 8.265625  Q 44.046875 -1.421875 31.78125 -1.421875  Q 19.53125 -1.421875 13.0625 8.265625  Q 6.59375 17.96875 6.59375 36.375  Q 6.59375 54.828125 13.0625 64.515625  Q 19.53125 74.21875 31.78125 74.21875  z " id="DejaVuSans-48" />
    </defs>
    <g style="fill:#444443;" transform="translate(6.622734 28.851665)scale(0.09 -0.09)">
     <use xlink:href="#DejaVuSans-48" />
    </g>
   </g>
  </g>
 </g>
</svg></g>


<g class="node" id="node3">
<title>node0</title>
<svg height="84px" preserveAspectRatio="xMinYMin meet" version="1.1" viewBox="0 0 203.501434 112.23" width="153px" x="57" y="-305">
 <defs>
  <style type="text/css">
*{stroke-linecap:butt;stroke-linejoin:round;}
  </style>
 </defs>
 <g id="figure_1">
  <g id="patch_1">
   <path d="M 0 112.23  L 203.501434 112.23  L 203.501434 -0  L 0 -0  z " style="fill:#ffffff;" />
  </g>
  <g id="axes_1">
   <g id="patch_2">
    <path d="M 14.803125 81.54  L 198.943125 81.54  L 198.943125 0  L 14.803125 0  z " style="fill:#ffffff;" />
   </g>
   <g id="patch_3">
    <path clip-path="url(#p3907bb85a7)" d="M 16.772537 81.54  L 24.650184 81.54  L 24.650184 50.477143  L 16.772537 50.477143  z " style="fill:#fefebb;stroke:#444443;stroke-linejoin:miter;stroke-width:0.5;" />
   </g>
   <g id="patch_4">
    <path clip-path="url(#p3907bb85a7)" d="M 36.466654 81.54  L 44.344301 81.54  L 44.344301 81.54  L 36.466654 81.54  z " style="fill:#fefebb;stroke:#444443;stroke-linejoin:miter;stroke-width:0.5;" />
   </g>
   <g id="patch_5">
    <path clip-path="url(#p3907bb85a7)" d="M 56.160772 81.54  L 64.038419 81.54  L 64.038419 81.54  L 56.160772 81.54  z " style="fill:#fefebb;stroke:#444443;stroke-linejoin:miter;stroke-width:0.5;" />
   </g>
   <g id="patch_6">
    <path clip-path="url(#p3907bb85a7)" d="M 75.85489 81.54  L 83.732537 81.54  L 83.732537 81.54  L 75.85489 81.54  z " style="fill:#fefebb;stroke:#444443;stroke-linejoin:miter;stroke-width:0.5;" />
   </g>
   <g id="patch_7">
    <path clip-path="url(#p3907bb85a7)" d="M 95.549007 81.54  L 103.426654 81.54  L 103.426654 81.54  L 95.549007 81.54  z " style="fill:#fefebb;stroke:#444443;stroke-linejoin:miter;stroke-width:0.5;" />
   </g>
   <g id="patch_8">
    <path clip-path="url(#p3907bb85a7)" d="M 115.243125 81.54  L 123.120772 81.54  L 123.120772 81.54  L 115.243125 81.54  z " style="fill:#fefebb;stroke:#444443;stroke-linejoin:miter;stroke-width:0.5;" />
   </g>
   <g id="patch_9">
    <path clip-path="url(#p3907bb85a7)" d="M 134.937243 81.54  L 142.81489 81.54  L 142.81489 81.54  L 134.937243 81.54  z " style="fill:#fefebb;stroke:#444443;stroke-linejoin:miter;stroke-width:0.5;" />
   </g>
   <g id="patch_10">
    <path clip-path="url(#p3907bb85a7)" d="M 154.63136 81.54  L 162.509007 81.54  L 162.509007 81.54  L 154.63136 81.54  z " style="fill:#fefebb;stroke:#444443;stroke-linejoin:miter;stroke-width:0.5;" />
   </g>
   <g id="patch_11">
    <path clip-path="url(#p3907bb85a7)" d="M 174.325478 81.54  L 182.203125 81.54  L 182.203125 50.477143  L 174.325478 50.477143  z " style="fill:#fefebb;stroke:#444443;stroke-linejoin:miter;stroke-width:0.5;" />
   </g>
   <g id="patch_12">
    <path clip-path="url(#p3907bb85a7)" d="M 24.650184 81.54  L 32.527831 81.54  L 32.527831 3.882857  L 24.650184 3.882857  z " style="fill:#a1dab4;stroke:#444443;stroke-linejoin:miter;stroke-width:0.5;" />
   </g>
   <g id="patch_13">
    <path clip-path="url(#p3907bb85a7)" d="M 44.344301 81.54  L 52.221949 81.54  L 52.221949 81.54  L 44.344301 81.54  z " style="fill:#a1dab4;stroke:#444443;stroke-linejoin:miter;stroke-width:0.5;" />
   </g>
   <g id="patch_14">
    <path clip-path="url(#p3907bb85a7)" d="M 64.038419 81.54  L 71.916066 81.54  L 71.916066 81.54  L 64.038419 81.54  z " style="fill:#a1dab4;stroke:#444443;stroke-linejoin:miter;stroke-width:0.5;" />
   </g>
   <g id="patch_15">
    <path clip-path="url(#p3907bb85a7)" d="M 83.732537 81.54  L 91.610184 81.54  L 91.610184 81.54  L 83.732537 81.54  z " style="fill:#a1dab4;stroke:#444443;stroke-linejoin:miter;stroke-width:0.5;" />
   </g>
   <g id="patch_16">
    <path clip-path="url(#p3907bb85a7)" d="M 103.426654 81.54  L 111.304301 81.54  L 111.304301 81.54  L 103.426654 81.54  z " style="fill:#a1dab4;stroke:#444443;stroke-linejoin:miter;stroke-width:0.5;" />
   </g>
   <g id="patch_17">
    <path clip-path="url(#p3907bb85a7)" d="M 123.120772 81.54  L 130.998419 81.54  L 130.998419 81.54  L 123.120772 81.54  z " style="fill:#a1dab4;stroke:#444443;stroke-linejoin:miter;stroke-width:0.5;" />
   </g>
   <g id="patch_18">
    <path clip-path="url(#p3907bb85a7)" d="M 142.81489 81.54  L 150.692537 81.54  L 150.692537 81.54  L 142.81489 81.54  z " style="fill:#a1dab4;stroke:#444443;stroke-linejoin:miter;stroke-width:0.5;" />
   </g>
   <g id="patch_19">
    <path clip-path="url(#p3907bb85a7)" d="M 162.509007 81.54  L 170.386654 81.54  L 170.386654 81.54  L 162.509007 81.54  z " style="fill:#a1dab4;stroke:#444443;stroke-linejoin:miter;stroke-width:0.5;" />
   </g>
   <g id="patch_20">
    <path clip-path="url(#p3907bb85a7)" d="M 182.203125 81.54  L 190.080772 81.54  L 190.080772 81.54  L 182.203125 81.54  z " style="fill:#a1dab4;stroke:#444443;stroke-linejoin:miter;stroke-width:0.5;" />
   </g>
   <g id="patch_21">
    <path d="M 103.426657 82.3554  L 100.112137 89.694  L 106.741177 89.694  z " style="fill:#444443;" />
   </g>
   <g id="matplotlib.axis_1">
    <g id="xtick_1">
     <g id="line2d_1">
      <defs>
       <path d="M 0 0  L 0 3.5  " id="mffc10a93b7" style="stroke:#000000;stroke-width:0.3;" />
      </defs>
      <g>
       <use style="stroke:#000000;stroke-width:0.3;" x="14.803125" y="81.54" xlink:href="#mffc10a93b7" />
      </g>
     </g>
     <g id="text_1">
      
      <defs>
       <path d="M 10.59375 35.5  L 73.1875 35.5  L 73.1875 27.203125  L 10.59375 27.203125  z " id="DejaVuSans-8722" />
       <path d="M 31.78125 66.40625  Q 24.171875 66.40625 20.328125 58.90625  Q 16.5 51.421875 16.5 36.375  Q 16.5 21.390625 20.328125 13.890625  Q 24.171875 6.390625 31.78125 6.390625  Q 39.453125 6.390625 43.28125 13.890625  Q 47.125 21.390625 47.125 36.375  Q 47.125 51.421875 43.28125 58.90625  Q 39.453125 66.40625 31.78125 66.40625  z M 31.78125 74.21875  Q 44.046875 74.21875 50.515625 64.515625  Q 56.984375 54.828125 56.984375 36.375  Q 56.984375 17.96875 50.515625 8.265625  Q 44.046875 -1.421875 31.78125 -1.421875  Q 19.53125 -1.421875 13.0625 8.265625  Q 6.59375 17.96875 6.59375 36.375  Q 6.59375 54.828125 13.0625 64.515625  Q 19.53125 74.21875 31.78125 74.21875  z " id="DejaVuSans-48" />
       <path d="M 10.6875 12.40625  L 21 12.40625  L 21 0  L 10.6875 0  z " id="DejaVuSans-46" />
       <path d="M 10.796875 72.90625  L 49.515625 72.90625  L 49.515625 64.59375  L 19.828125 64.59375  L 19.828125 46.734375  Q 21.96875 47.46875 24.109375 47.828125  Q 26.265625 48.1875 28.421875 48.1875  Q 40.625 48.1875 47.75 41.5  Q 54.890625 34.8125 54.890625 23.390625  Q 54.890625 11.625 47.5625 5.09375  Q 40.234375 -1.421875 26.90625 -1.421875  Q 22.3125 -1.421875 17.546875 -0.640625  Q 12.796875 0.140625 7.71875 1.703125  L 7.71875 11.625  Q 12.109375 9.234375 16.796875 8.0625  Q 21.484375 6.890625 26.703125 6.890625  Q 35.15625 6.890625 40.078125 11.328125  Q 45.015625 15.765625 45.015625 23.390625  Q 45.015625 31 40.078125 35.4375  Q 35.15625 39.890625 26.703125 39.890625  Q 22.75 39.890625 18.8125 39.015625  Q 14.890625 38.140625 10.796875 36.28125  z " id="DejaVuSans-53" />
       <path d="M 40.578125 39.3125  Q 47.65625 37.796875 51.625 33  Q 55.609375 28.21875 55.609375 21.1875  Q 55.609375 10.40625 48.1875 4.484375  Q 40.765625 -1.421875 27.09375 -1.421875  Q 22.515625 -1.421875 17.65625 -0.515625  Q 12.796875 0.390625 7.625 2.203125  L 7.625 11.71875  Q 11.71875 9.328125 16.59375 8.109375  Q 21.484375 6.890625 26.8125 6.890625  Q 36.078125 6.890625 40.9375 10.546875  Q 45.796875 14.203125 45.796875 21.1875  Q 45.796875 27.640625 41.28125 31.265625  Q 36.765625 34.90625 28.71875 34.90625  L 20.21875 34.90625  L 20.21875 43.015625  L 29.109375 43.015625  Q 36.375 43.015625 40.234375 45.921875  Q 44.09375 48.828125 44.09375 54.296875  Q 44.09375 59.90625 40.109375 62.90625  Q 36.140625 65.921875 28.71875 65.921875  Q 24.65625 65.921875 20.015625 65.03125  Q 15.375 64.15625 9.8125 62.3125  L 9.8125 71.09375  Q 15.4375 72.65625 20.34375 73.4375  Q 25.25 74.21875 29.59375 74.21875  Q 40.828125 74.21875 47.359375 69.109375  Q 53.90625 64.015625 53.90625 55.328125  Q 53.90625 49.265625 50.4375 45.09375  Q 46.96875 40.921875 40.578125 39.3125  z " id="DejaVuSans-51" />
      </defs>
      <g style="fill:#444443;" transform="translate(0 94.61875)scale(0.08 -0.08)">
       <use xlink:href="#DejaVuSans-8722" />
       <use x="83.789062" xlink:href="#DejaVuSans-48" />
       <use x="147.412109" xlink:href="#DejaVuSans-46" />
       <use x="179.199219" xlink:href="#DejaVuSans-53" />
       <use x="242.822266" xlink:href="#DejaVuSans-51" />
       <use x="306.445312" xlink:href="#DejaVuSans-53" />
      </g>
     </g>
    </g>
    <g id="xtick_2">
     <g id="line2d_2">
      <g>
       <use style="stroke:#000000;stroke-width:0.3;" x="192.050184" y="81.54" xlink:href="#mffc10a93b7" />
      </g>
     </g>
     <g id="text_2">
      
      <defs>
       <path d="M 12.40625 8.296875  L 28.515625 8.296875  L 28.515625 63.921875  L 10.984375 60.40625  L 10.984375 69.390625  L 28.421875 72.90625  L 38.28125 72.90625  L 38.28125 8.296875  L 54.390625 8.296875  L 54.390625 0  L 12.40625 0  z " id="DejaVuSans-49" />
       <path d="M 31.78125 34.625  Q 24.75 34.625 20.71875 30.859375  Q 16.703125 27.09375 16.703125 20.515625  Q 16.703125 13.921875 20.71875 10.15625  Q 24.75 6.390625 31.78125 6.390625  Q 38.8125 6.390625 42.859375 10.171875  Q 46.921875 13.96875 46.921875 20.515625  Q 46.921875 27.09375 42.890625 30.859375  Q 38.875 34.625 31.78125 34.625  z M 21.921875 38.8125  Q 15.578125 40.375 12.03125 44.71875  Q 8.5 49.078125 8.5 55.328125  Q 8.5 64.0625 14.71875 69.140625  Q 20.953125 74.21875 31.78125 74.21875  Q 42.671875 74.21875 48.875 69.140625  Q 55.078125 64.0625 55.078125 55.328125  Q 55.078125 49.078125 51.53125 44.71875  Q 48 40.375 41.703125 38.8125  Q 48.828125 37.15625 52.796875 32.3125  Q 56.78125 27.484375 56.78125 20.515625  Q 56.78125 9.90625 50.3125 4.234375  Q 43.84375 -1.421875 31.78125 -1.421875  Q 19.734375 -1.421875 13.25 4.234375  Q 6.78125 9.90625 6.78125 20.515625  Q 6.78125 27.484375 10.78125 32.3125  Q 14.796875 37.15625 21.921875 38.8125  z M 18.3125 54.390625  Q 18.3125 48.734375 21.84375 45.5625  Q 25.390625 42.390625 31.78125 42.390625  Q 38.140625 42.390625 41.71875 45.5625  Q 45.3125 48.734375 45.3125 54.390625  Q 45.3125 60.0625 41.71875 63.234375  Q 38.140625 66.40625 31.78125 66.40625  Q 25.390625 66.40625 21.84375 63.234375  Q 18.3125 60.0625 18.3125 54.390625  z " id="DejaVuSans-56" />
       <path d="M 8.203125 72.90625  L 55.078125 72.90625  L 55.078125 68.703125  L 28.609375 0  L 18.3125 0  L 43.21875 64.59375  L 8.203125 64.59375  z " id="DejaVuSans-55" />
      </defs>
      <g style="fill:#444443;" transform="translate(180.598934 94.61875)scale(0.08 -0.08)">
       <use xlink:href="#DejaVuSans-49" />
       <use x="63.623047" xlink:href="#DejaVuSans-46" />
       <use x="95.410156" xlink:href="#DejaVuSans-56" />
       <use x="159.033203" xlink:href="#DejaVuSans-55" />
       <use x="222.65625" xlink:href="#DejaVuSans-49" />
      </g>
     </g>
    </g>
    <g id="text_3">
     
     <defs>
      <path d="M 44.390625 34.1875  Q 47.5625 33.109375 50.5625 29.59375  Q 53.5625 26.078125 56.59375 19.921875  L 66.609375 0  L 56 0  L 46.6875 18.703125  Q 43.0625 26.03125 39.671875 28.421875  Q 36.28125 30.8125 30.421875 30.8125  L 19.671875 30.8125  L 19.671875 0  L 9.8125 0  L 9.8125 72.90625  L 32.078125 72.90625  Q 44.578125 72.90625 50.734375 67.671875  Q 56.890625 62.453125 56.890625 51.90625  Q 56.890625 45.015625 53.6875 40.46875  Q 50.484375 35.9375 44.390625 34.1875  z M 19.671875 64.796875  L 19.671875 38.921875  L 32.078125 38.921875  Q 39.203125 38.921875 42.84375 42.21875  Q 46.484375 45.515625 46.484375 51.90625  Q 46.484375 58.296875 42.84375 61.546875  Q 39.203125 64.796875 32.078125 64.796875  z " id="DejaVuSans-82" />
      <path d="M 34.28125 27.484375  Q 23.390625 27.484375 19.1875 25  Q 14.984375 22.515625 14.984375 16.5  Q 14.984375 11.71875 18.140625 8.90625  Q 21.296875 6.109375 26.703125 6.109375  Q 34.1875 6.109375 38.703125 11.40625  Q 43.21875 16.703125 43.21875 25.484375  L 43.21875 27.484375  z M 52.203125 31.203125  L 52.203125 0  L 43.21875 0  L 43.21875 8.296875  Q 40.140625 3.328125 35.546875 0.953125  Q 30.953125 -1.421875 24.3125 -1.421875  Q 15.921875 -1.421875 10.953125 3.296875  Q 6 8.015625 6 15.921875  Q 6 25.140625 12.171875 29.828125  Q 18.359375 34.515625 30.609375 34.515625  L 43.21875 34.515625  L 43.21875 35.40625  Q 43.21875 41.609375 39.140625 45  Q 35.0625 48.390625 27.6875 48.390625  Q 23 48.390625 18.546875 47.265625  Q 14.109375 46.140625 10.015625 43.890625  L 10.015625 52.203125  Q 14.9375 54.109375 19.578125 55.046875  Q 24.21875 56 28.609375 56  Q 40.484375 56 46.34375 49.84375  Q 52.203125 43.703125 52.203125 31.203125  z " id="DejaVuSans-97" />
      <path d="M 9.421875 54.6875  L 18.40625 54.6875  L 18.40625 0  L 9.421875 0  z M 9.421875 75.984375  L 18.40625 75.984375  L 18.40625 64.59375  L 9.421875 64.59375  z " id="DejaVuSans-105" />
      <path d="M 54.890625 33.015625  L 54.890625 0  L 45.90625 0  L 45.90625 32.71875  Q 45.90625 40.484375 42.875 44.328125  Q 39.84375 48.1875 33.796875 48.1875  Q 26.515625 48.1875 22.3125 43.546875  Q 18.109375 38.921875 18.109375 30.90625  L 18.109375 0  L 9.078125 0  L 9.078125 54.6875  L 18.109375 54.6875  L 18.109375 46.1875  Q 21.34375 51.125 25.703125 53.5625  Q 30.078125 56 35.796875 56  Q 45.21875 56 50.046875 50.171875  Q 54.890625 44.34375 54.890625 33.015625  z " id="DejaVuSans-110" />
      <path d="M 45.40625 27.984375  Q 45.40625 37.75 41.375 43.109375  Q 37.359375 48.484375 30.078125 48.484375  Q 22.859375 48.484375 18.828125 43.109375  Q 14.796875 37.75 14.796875 27.984375  Q 14.796875 18.265625 18.828125 12.890625  Q 22.859375 7.515625 30.078125 7.515625  Q 37.359375 7.515625 41.375 12.890625  Q 45.40625 18.265625 45.40625 27.984375  z M 54.390625 6.78125  Q 54.390625 -7.171875 48.1875 -13.984375  Q 42 -20.796875 29.203125 -20.796875  Q 24.46875 -20.796875 20.265625 -20.09375  Q 16.0625 -19.390625 12.109375 -17.921875  L 12.109375 -9.1875  Q 16.0625 -11.328125 19.921875 -12.34375  Q 23.78125 -13.375 27.78125 -13.375  Q 36.625 -13.375 41.015625 -8.765625  Q 45.40625 -4.15625 45.40625 5.171875  L 45.40625 9.625  Q 42.625 4.78125 38.28125 2.390625  Q 33.9375 0 27.875 0  Q 17.828125 0 11.671875 7.65625  Q 5.515625 15.328125 5.515625 27.984375  Q 5.515625 40.671875 11.671875 48.328125  Q 17.828125 56 27.875 56  Q 33.9375 56 38.28125 53.609375  Q 42.625 51.21875 45.40625 46.390625  L 45.40625 54.6875  L 54.390625 54.6875  z " id="DejaVuSans-103" />
      <path d="M 50.984375 -16.609375  L 50.984375 -23.578125  L -0.984375 -23.578125  L -0.984375 -16.609375  z " id="DejaVuSans-95" />
      <path d="M -0.203125 72.90625  L 10.40625 72.90625  L 30.609375 42.921875  L 50.6875 72.90625  L 61.28125 72.90625  L 35.5 34.71875  L 35.5 0  L 25.59375 0  L 25.59375 34.71875  z " id="DejaVuSans-89" />
      <path d="M 56.203125 29.59375  L 56.203125 25.203125  L 14.890625 25.203125  Q 15.484375 15.921875 20.484375 11.0625  Q 25.484375 6.203125 34.421875 6.203125  Q 39.59375 6.203125 44.453125 7.46875  Q 49.3125 8.734375 54.109375 11.28125  L 54.109375 2.78125  Q 49.265625 0.734375 44.1875 -0.34375  Q 39.109375 -1.421875 33.890625 -1.421875  Q 20.796875 -1.421875 13.15625 6.1875  Q 5.515625 13.8125 5.515625 26.8125  Q 5.515625 40.234375 12.765625 48.109375  Q 20.015625 56 32.328125 56  Q 43.359375 56 49.78125 48.890625  Q 56.203125 41.796875 56.203125 29.59375  z M 47.21875 32.234375  Q 47.125 39.59375 43.09375 43.984375  Q 39.0625 48.390625 32.421875 48.390625  Q 24.90625 48.390625 20.390625 44.140625  Q 15.875 39.890625 15.1875 32.171875  z " id="DejaVuSans-101" />
      <path d="M 44.28125 53.078125  L 44.28125 44.578125  Q 40.484375 46.53125 36.375 47.5  Q 32.28125 48.484375 27.875 48.484375  Q 21.1875 48.484375 17.84375 46.4375  Q 14.5 44.390625 14.5 40.28125  Q 14.5 37.15625 16.890625 35.375  Q 19.28125 33.59375 26.515625 31.984375  L 29.59375 31.296875  Q 39.15625 29.25 43.1875 25.515625  Q 47.21875 21.78125 47.21875 15.09375  Q 47.21875 7.46875 41.1875 3.015625  Q 35.15625 -1.421875 24.609375 -1.421875  Q 20.21875 -1.421875 15.453125 -0.5625  Q 10.6875 0.296875 5.421875 2  L 5.421875 11.28125  Q 10.40625 8.6875 15.234375 7.390625  Q 20.0625 6.109375 24.8125 6.109375  Q 31.15625 6.109375 34.5625 8.28125  Q 37.984375 10.453125 37.984375 14.40625  Q 37.984375 18.0625 35.515625 20.015625  Q 33.0625 21.96875 24.703125 23.78125  L 21.578125 24.515625  Q 13.234375 26.265625 9.515625 29.90625  Q 5.8125 33.546875 5.8125 39.890625  Q 5.8125 47.609375 11.28125 51.796875  Q 16.75 56 26.8125 56  Q 31.78125 56 36.171875 55.265625  Q 40.578125 54.546875 44.28125 53.078125  z " id="DejaVuSans-115" />
     </defs>
     <g style="fill:#444443;" transform="translate(71.727188 109.400625)scale(0.12 -0.12)">
      <use xlink:href="#DejaVuSans-82" />
      <use x="67.232422" xlink:href="#DejaVuSans-97" />
      <use x="128.511719" xlink:href="#DejaVuSans-105" />
      <use x="156.294922" xlink:href="#DejaVuSans-110" />
      <use x="219.673828" xlink:href="#DejaVuSans-105" />
      <use x="247.457031" xlink:href="#DejaVuSans-110" />
      <use x="310.835938" xlink:href="#DejaVuSans-103" />
      <use x="374.3125" xlink:href="#DejaVuSans-95" />
      <use x="424.3125" xlink:href="#DejaVuSans-89" />
      <use x="472.146484" xlink:href="#DejaVuSans-101" />
      <use x="533.669922" xlink:href="#DejaVuSans-115" />
     </g>
    </g>
   </g>
   <g id="matplotlib.axis_2">
    <g id="ytick_1">
     <g id="line2d_3">
      <defs>
       <path d="M 0 0  L -3.5 0  " id="m93f8d50627" style="stroke:#000000;stroke-width:0.3;" />
      </defs>
      <g>
       <use style="stroke:#000000;stroke-width:0.3;" x="14.803125" y="81.54" xlink:href="#m93f8d50627" />
      </g>
     </g>
     <g id="text_4">
      
      <g style="fill:#444443;" transform="translate(2.713125 84.579375)scale(0.08 -0.08)">
       <use xlink:href="#DejaVuSans-48" />
      </g>
     </g>
    </g>
    <g id="ytick_2">
     <g id="line2d_4">
      <g>
       <use style="stroke:#000000;stroke-width:0.3;" x="14.803125" y="3.882857" xlink:href="#m93f8d50627" />
      </g>
     </g>
     <g id="text_5">
      
      <g style="fill:#444443;" transform="translate(2.713125 6.922232)scale(0.08 -0.08)">
       <use xlink:href="#DejaVuSans-53" />
      </g>
     </g>
    </g>
   </g>
   <g id="patch_22">
    <path d="M 14.803125 81.54  L 14.803125 0  " style="fill:none;stroke:#000000;stroke-linecap:square;stroke-linejoin:miter;stroke-width:0.3;" />
   </g>
   <g id="patch_23">
    <path d="M 14.803125 81.54  L 198.943125 81.54  " style="fill:none;stroke:#000000;stroke-linecap:square;stroke-linejoin:miter;stroke-width:0.3;" />
   </g>
   <g id="text_6">
    
    <defs>
     <path d="M 33.015625 40.375  Q 26.375 40.375 22.484375 35.828125  Q 18.609375 31.296875 18.609375 23.390625  Q 18.609375 15.53125 22.484375 10.953125  Q 26.375 6.390625 33.015625 6.390625  Q 39.65625 6.390625 43.53125 10.953125  Q 47.40625 15.53125 47.40625 23.390625  Q 47.40625 31.296875 43.53125 35.828125  Q 39.65625 40.375 33.015625 40.375  z M 52.59375 71.296875  L 52.59375 62.3125  Q 48.875 64.0625 45.09375 64.984375  Q 41.3125 65.921875 37.59375 65.921875  Q 27.828125 65.921875 22.671875 59.328125  Q 17.53125 52.734375 16.796875 39.40625  Q 19.671875 43.65625 24.015625 45.921875  Q 28.375 48.1875 33.59375 48.1875  Q 44.578125 48.1875 50.953125 41.515625  Q 57.328125 34.859375 57.328125 23.390625  Q 57.328125 12.15625 50.6875 5.359375  Q 44.046875 -1.421875 33.015625 -1.421875  Q 20.359375 -1.421875 13.671875 8.265625  Q 6.984375 17.96875 6.984375 36.375  Q 6.984375 53.65625 15.1875 63.9375  Q 23.390625 74.21875 37.203125 74.21875  Q 40.921875 74.21875 44.703125 73.484375  Q 48.484375 72.75 52.59375 71.296875  z " id="DejaVuSans-54" />
    </defs>
    <g style="fill:#444443;" transform="translate(94.520407 97.848)scale(0.08 -0.08)">
     <use xlink:href="#DejaVuSans-48" />
     <use x="63.623047" xlink:href="#DejaVuSans-46" />
     <use x="95.410156" xlink:href="#DejaVuSans-54" />
     <use x="159.033203" xlink:href="#DejaVuSans-55" />
    </g>
   </g>
  </g>
 </g>
 <defs>
  <clipPath id="p3907bb85a7">
   <rect height="81.54" width="184.14" x="14.803125" y="0" />
  </clipPath>
 </defs>
</svg></g>

<g class="edge" id="edge7">
<title>node0-&gt;node1</title>
<path d="M111.4,-216.72C107.1,-207.71 102.64,-198.36 98.5,-189.68" fill="none" stroke="#444443" stroke-width="0.3" />
<polygon fill="#444443" points="99.73,-189.02 96.75,-186.01 97.21,-190.22 99.73,-189.02" stroke="#444443" stroke-width="0.3" />
<text font-family="Times,serif" font-size="14.00" text-anchor="start" x="107" y="-197.8">&lt;</text>
</g>

<g class="edge" id="edge8">
<title>node0-&gt;leaf6</title>
<path d="M155.43,-216.72C163.31,-200.82 171.72,-183.84 177.88,-171.41" fill="none" stroke="#444443" stroke-width="0.3" />
<polygon fill="#444443" points="179.2,-171.91 179.72,-167.7 176.69,-170.66 179.2,-171.91" stroke="#444443" stroke-width="0.3" />
<text font-family="Times,serif" font-size="14.00" text-anchor="start" x="167" y="-197.8">&#8805;</text>
</g>



<g class="node" id="node8">
<title>legend</title>
<polygon fill="none" points="271.5,-286 220.5,-286 220.5,-240 271.5,-240 271.5,-286" stroke="black" stroke-width="0" />
<svg height="42px" preserveAspectRatio="xMinYMin meet" version="1.1" viewBox="0 0 62.9375 55.034375" width="47px" x="223" y="-284">
 <defs>
  <style type="text/css">
*{stroke-linecap:butt;stroke-linejoin:round;}
  </style>
 </defs>
 <g id="figure_1">
  <g id="patch_1">
   <path d="M 0 55.034375  L 62.9375 55.034375  L 62.9375 0  L 0 0  z " style="fill:#ffffff;" />
  </g>
  <g id="axes_1">
   <g id="legend_1">
    <g id="patch_2">
     <path d="M 2 55.034375  L 60.9375 55.034375  Q 62.9375 55.034375 62.9375 53.034375  L 62.9375 2  Q 62.9375 -0 60.9375 -0  L 2 -0  Q 0 -0 0 2  L 0 53.034375  Q 0 55.034375 2 55.034375  z " style="fill:#ffffff;opacity:0.8;stroke:#444443;stroke-linejoin:miter;stroke-width:0.5;" />
    </g>
    <g id="text_1">
     
     <defs>
      <path d="M 2.984375 72.90625  L 21 72.90625  L 33.59375 19.921875  L 46.09375 72.90625  L 64.203125 72.90625  L 76.703125 19.921875  L 89.3125 72.90625  L 107.171875 72.90625  L 89.984375 0  L 68.3125 0  L 55.078125 55.421875  L 42 0  L 20.3125 0  z " id="DejaVuSans-Bold-87" />
      <path d="M 8.40625 54.6875  L 25.875 54.6875  L 25.875 0  L 8.40625 0  z M 8.40625 75.984375  L 25.875 75.984375  L 25.875 61.71875  L 8.40625 61.71875  z " id="DejaVuSans-Bold-105" />
      <path d="M 8.40625 75.984375  L 25.875 75.984375  L 25.875 0  L 8.40625 0  z " id="DejaVuSans-Bold-108" />
      <path d="M 32.90625 24.609375  Q 27.4375 24.609375 24.671875 22.75  Q 21.921875 20.90625 21.921875 17.28125  Q 21.921875 13.96875 24.140625 12.078125  Q 26.375 10.203125 30.328125 10.203125  Q 35.25 10.203125 38.625 13.734375  Q 42 17.28125 42 22.609375  L 42 24.609375  z M 59.625 31.203125  L 59.625 0  L 42 0  L 42 8.109375  Q 38.484375 3.125 34.078125 0.84375  Q 29.6875 -1.421875 23.390625 -1.421875  Q 14.890625 -1.421875 9.59375 3.53125  Q 4.296875 8.5 4.296875 16.40625  Q 4.296875 26.03125 10.90625 30.515625  Q 17.53125 35.015625 31.6875 35.015625  L 42 35.015625  L 42 36.375  Q 42 40.53125 38.71875 42.453125  Q 35.453125 44.390625 28.515625 44.390625  Q 22.90625 44.390625 18.0625 43.265625  Q 13.234375 42.140625 9.078125 39.890625  L 9.078125 53.21875  Q 14.703125 54.59375 20.359375 55.296875  Q 26.03125 56 31.6875 56  Q 46.484375 56 53.046875 50.171875  Q 59.625 44.34375 59.625 31.203125  z " id="DejaVuSans-Bold-97" />
      <path d="M 27.484375 70.21875  L 27.484375 54.6875  L 45.515625 54.6875  L 45.515625 42.1875  L 27.484375 42.1875  L 27.484375 19  Q 27.484375 15.1875 29 13.84375  Q 30.515625 12.5 35.015625 12.5  L 44 12.5  L 44 0  L 29 0  Q 18.65625 0 14.328125 4.3125  Q 10.015625 8.640625 10.015625 19  L 10.015625 42.1875  L 1.3125 42.1875  L 1.3125 54.6875  L 10.015625 54.6875  L 10.015625 70.21875  z " id="DejaVuSans-Bold-116" />
     </defs>
     <g style="fill:#444443;" transform="translate(8 15.598437)scale(0.1 -0.1)">
      <use xlink:href="#DejaVuSans-Bold-87" />
      <use x="110.302734" xlink:href="#DejaVuSans-Bold-105" />
      <use x="144.580078" xlink:href="#DejaVuSans-Bold-108" />
      <use x="178.857422" xlink:href="#DejaVuSans-Bold-108" />
      <use x="213.134766" xlink:href="#DejaVuSans-Bold-87" />
      <use x="319.8125" xlink:href="#DejaVuSans-Bold-97" />
      <use x="387.292969" xlink:href="#DejaVuSans-Bold-105" />
      <use x="421.570312" xlink:href="#DejaVuSans-Bold-116" />
     </g>
    </g>
    <g id="patch_3">
     <path d="M 16.5375 30.276562  L 36.5375 30.276562  L 36.5375 23.276562  L 16.5375 23.276562  z " style="fill:#fefebb;stroke:#444443;stroke-linejoin:miter;stroke-width:0.4;" />
    </g>
    <g id="text_2">
     
     <defs>
      <path d="M 31.78125 66.40625  Q 24.171875 66.40625 20.328125 58.90625  Q 16.5 51.421875 16.5 36.375  Q 16.5 21.390625 20.328125 13.890625  Q 24.171875 6.390625 31.78125 6.390625  Q 39.453125 6.390625 43.28125 13.890625  Q 47.125 21.390625 47.125 36.375  Q 47.125 51.421875 43.28125 58.90625  Q 39.453125 66.40625 31.78125 66.40625  z M 31.78125 74.21875  Q 44.046875 74.21875 50.515625 64.515625  Q 56.984375 54.828125 56.984375 36.375  Q 56.984375 17.96875 50.515625 8.265625  Q 44.046875 -1.421875 31.78125 -1.421875  Q 19.53125 -1.421875 13.0625 8.265625  Q 6.59375 17.96875 6.59375 36.375  Q 6.59375 54.828125 13.0625 64.515625  Q 19.53125 74.21875 31.78125 74.21875  z " id="DejaVuSans-48" />
     </defs>
     <g style="fill:#444443;" transform="translate(40.0375 30.276562)scale(0.1 -0.1)">
      <use xlink:href="#DejaVuSans-48" />
     </g>
    </g>
    <g id="patch_4">
     <path d="M 16.5375 44.954687  L 36.5375 44.954687  L 36.5375 37.954687  L 16.5375 37.954687  z " style="fill:#a1dab4;stroke:#444443;stroke-linejoin:miter;stroke-width:0.4;" />
    </g>
    <g id="text_3">
     
     <defs>
      <path d="M 12.40625 8.296875  L 28.515625 8.296875  L 28.515625 63.921875  L 10.984375 60.40625  L 10.984375 69.390625  L 28.421875 72.90625  L 38.28125 72.90625  L 38.28125 8.296875  L 54.390625 8.296875  L 54.390625 0  L 12.40625 0  z " id="DejaVuSans-49" />
     </defs>
     <g style="fill:#444443;" transform="translate(40.0375 44.954687)scale(0.1 -0.1)">
      <use xlink:href="#DejaVuSans-49" />
     </g>
    </g>
   </g>
  </g>
 </g>
</svg></g>
</g>
</svg>